<?xml version="1.0" encoding="iso-8859-1"?>
<!-- Uploaded to: SVG Repo, www.svgrepo.com, Generator: SVG Repo Mixer Tools -->
<svg height="800px" width="800px" version="1.1" id="Layer_1" xmlns="http://www.w3.org/2000/svg" xmlns:xlink="http://www.w3.org/1999/xlink" 
	 viewBox="0 0 290.626 290.626" xml:space="preserve">
<g>
	<g>
		<path style="fill:#333333;" d="M154.771,34.847c5.531-3.267,9.291-9.225,9.291-16.097c0-10.341-8.409-18.75-18.75-18.75
			s-18.75,8.409-18.75,18.75c0,6.872,3.759,12.83,9.291,16.097c-8.217,3.647-13.978,11.85-13.978,21.403v4.688
			c0,2.588,2.095,4.688,4.688,4.688h14.063v32.813h9.373V65.625h14.063c2.592,0,4.688-2.1,4.688-4.688V56.25
			C168.749,46.697,162.988,38.494,154.771,34.847z M145.312,9.375c5.17,0,9.375,4.205,9.375,9.375s-4.205,9.375-9.375,9.375
			s-9.375-4.205-9.375-9.375S140.141,9.375,145.312,9.375z M131.249,56.25c0-7.753,6.309-14.063,14.063-14.063
			s14.063,6.309,14.063,14.063H131.249z"/>
		<path style="fill:#333333;" d="M9.374,98.438h37.5c2.592,0,4.688-2.1,4.688-4.688v-0.619l48.961,32.644l5.198-7.8L49.982,80.817
			c-2.222-5.869-6.694-10.622-12.403-13.158c5.536-3.267,9.295-9.225,9.295-16.097c0-10.341-8.409-18.75-18.75-18.75
			s-18.75,8.409-18.75,18.75c0,6.872,3.759,12.83,9.291,16.097c-8.217,3.647-13.978,11.85-13.978,21.403v4.688
			C4.686,96.338,6.782,98.438,9.374,98.438z M28.124,42.188c5.17,0,9.375,4.205,9.375,9.375s-4.205,9.375-9.375,9.375
			s-9.375-4.205-9.375-9.375S22.953,42.188,28.124,42.188z M28.124,75c7.753,0,14.063,6.309,14.063,14.063H14.061
			C14.061,81.309,20.371,75,28.124,75z"/>
		<path style="fill:#333333;" d="M271.959,67.659c5.531-3.267,9.291-9.225,9.291-16.097c0-10.341-8.409-18.75-18.75-18.75
			c-10.341,0-18.75,8.409-18.75,18.75c0,6.872,3.759,12.83,9.291,16.097c-5.709,2.536-10.181,7.289-12.403,13.158l-55.739,37.158
			l5.198,7.8l48.966-32.644v0.619c0,2.588,2.095,4.688,4.688,4.688h37.5c2.592,0,4.688-2.1,4.688-4.688v-4.688
			C285.937,79.509,280.176,71.306,271.959,67.659z M262.499,42.188c5.17,0,9.375,4.205,9.375,9.375s-4.205,9.375-9.375,9.375
			s-9.375-4.205-9.375-9.375S257.329,42.188,262.499,42.188z M248.437,89.063C248.437,81.31,254.746,75,262.5,75
			c7.753,0,14.063,6.309,14.063,14.063H248.437z"/>
		<path style="fill:#333333;" d="M271.959,198.909c5.531-3.262,9.291-9.22,9.291-16.097c0-10.341-8.409-18.75-18.75-18.75
			c-10.341,0-18.75,8.409-18.75,18.75c0,6.877,3.759,12.834,9.291,16.097c-2.592,1.153-4.945,2.742-6.942,4.706l-55.927-38.719
			l-5.339,7.711l56.016,38.78c-1.139,2.752-1.786,5.761-1.786,8.925V225c0,2.592,2.095,4.688,4.688,4.688h37.5
			c2.592,0,4.688-2.095,4.688-4.688v-4.688C285.937,210.759,280.176,202.556,271.959,198.909z M262.499,173.438
			c5.17,0,9.375,4.205,9.375,9.375s-4.205,9.375-9.375,9.375s-9.375-4.205-9.375-9.375S257.329,173.438,262.499,173.438z
			 M248.437,220.313c0-7.753,6.309-14.063,14.063-14.063c7.753,0,14.063,6.309,14.063,14.063H248.437z"/>
		<path style="fill:#333333;" d="M154.771,259.847c5.531-3.262,9.291-9.22,9.291-16.097c0-8.714-5.995-15.989-14.063-18.084v-33.478
			h-9.375v33.478c-8.067,2.095-14.063,9.37-14.063,18.084c0,6.877,3.759,12.834,9.291,16.097
			c-8.217,3.647-13.978,11.85-13.978,21.403v4.688c0,2.592,2.095,4.688,4.688,4.688h37.5c2.592,0,4.688-2.095,4.688-4.688v-4.688
			C168.749,271.697,162.988,263.494,154.771,259.847z M145.312,234.375c5.17,0,9.375,4.205,9.375,9.375s-4.205,9.375-9.375,9.375
			s-9.375-4.205-9.375-9.375S140.141,234.375,145.312,234.375z M131.249,281.25c0-7.753,6.309-14.063,14.063-14.063
			s14.063,6.309,14.063,14.063H131.249z"/>
		<path style="fill:#333333;" d="M100.457,164.897L44.53,203.616c-1.997-1.964-4.35-3.553-6.942-4.706
			c5.527-3.263,9.286-9.22,9.286-16.097c0-10.341-8.409-18.75-18.75-18.75s-18.75,8.409-18.75,18.75
			c0,6.877,3.759,12.834,9.291,16.097c-8.217,3.647-13.978,11.85-13.978,21.403V225c0,2.592,2.095,4.688,4.688,4.688h37.5
			c2.592,0,4.688-2.095,4.688-4.688v-4.688c0-3.164-0.647-6.173-1.786-8.925l56.016-38.78L100.457,164.897z M28.124,173.438
			c5.17,0,9.375,4.205,9.375,9.375s-4.205,9.375-9.375,9.375s-9.375-4.205-9.375-9.375S22.953,173.438,28.124,173.438z
			 M14.061,220.313c0-7.753,6.309-14.063,14.063-14.063s14.063,6.309,14.063,14.063H14.061z"/>
		<path style="fill:#F9BA48;" d="M145.312,196.875c-28.43,0-51.563-23.133-51.563-51.563s23.133-51.563,51.563-51.563
			s51.563,23.133,51.563,51.563S173.741,196.875,145.312,196.875z"/>
		<path style="fill:#333333;" d="M154.771,142.659c5.531-3.267,9.291-9.225,9.291-16.097c0-10.341-8.409-18.75-18.75-18.75
			s-18.75,8.409-18.75,18.75c0,6.872,3.759,12.83,9.291,16.097c-8.217,3.647-13.978,11.85-13.978,21.403v4.688
			c0,2.592,2.095,4.688,4.688,4.688h37.5c2.592,0,4.688-2.095,4.688-4.688v-4.688C168.749,154.509,162.988,146.306,154.771,142.659z
			 M145.312,117.188c5.17,0,9.375,4.205,9.375,9.375s-4.205,9.375-9.375,9.375s-9.375-4.205-9.375-9.375
			S140.141,117.188,145.312,117.188z M131.249,164.063c0-7.753,6.309-14.063,14.063-14.063s14.063,6.309,14.063,14.063H131.249z"/>
	</g>
</g>
</svg>