<svg version="1.1" id="Layer_1" xmlns="http://www.w3.org/2000/svg" xmlns:xlink="http://www.w3.org/1999/xlink" x="0px" y="0px"
	 width="100%" viewBox="0 0 1200 1200" enable-background="new 0 0 1200 1200" xml:space="preserve">
<path fill="#47704C" opacity="1.000000" stroke="none" 
	d="
M699.000000,1201.000000 
	C466.000000,1201.000000 233.500000,1201.000000 1.000000,1201.000000 
	C1.000000,801.000000 1.000000,401.000000 1.000000,1.000000 
	C401.000000,1.000000 801.000000,1.000000 1201.000000,1.000000 
	C1201.000000,401.000000 1201.000000,801.000000 1201.000000,1201.000000 
	C1033.833374,1201.000000 866.666687,1201.000000 699.000000,1201.000000 
M716.874329,579.906860 
	C716.874329,579.906860 716.809570,579.881958 717.552124,579.905762 
	C725.169495,575.631165 732.791016,571.363892 740.403259,567.080200 
	C750.606750,561.338196 760.803101,555.583496 771.634155,550.149719 
	C786.658447,571.874512 801.770752,593.539124 816.686218,615.338440 
	C838.592285,647.354492 860.369324,679.458923 882.171692,711.545898 
	C885.774353,716.848083 885.704224,716.895752 891.376282,712.858521 
	C884.395569,702.868042 877.323608,692.923889 870.434814,682.854370 
	C850.555298,653.795959 830.769775,624.673218 810.906982,595.603333 
	C799.589844,579.040344 788.193787,562.531372 777.273315,545.434998 
	C779.942932,543.914185 783.065918,543.059814 783.042236,538.875427 
	C782.891479,512.252136 782.888123,485.627899 782.993103,458.275665 
	C787.351257,450.078766 791.682983,441.867676 796.073669,433.688263 
	C803.093872,420.610535 810.100342,407.525024 817.207153,394.494385 
	C830.477966,370.161713 843.847168,345.882721 857.119019,321.550629 
	C872.113159,294.060944 887.030579,266.529480 902.012390,239.033127 
	C907.081421,229.729950 912.275818,220.495148 917.353821,211.196869 
	C920.124207,206.123962 922.770996,200.983551 925.556519,195.716522 
	C923.093140,194.563919 921.374268,193.759674 919.744934,192.997330 
	C905.006348,220.022049 890.381226,246.769943 875.824219,273.554901 
	C866.165466,291.327148 856.643738,309.173828 846.990356,326.949005 
	C830.881592,356.610504 814.755005,386.262421 798.552185,415.872559 
	C793.562927,424.990448 788.300842,433.959106 783.057190,442.064667 
	C783.038574,407.073486 782.919922,372.081726 783.120789,337.091797 
	C783.147583,332.418945 781.575317,329.923279 777.622559,327.760834 
	C767.759033,322.364838 758.129150,316.542267 748.392761,310.913025 
	C733.950684,302.563019 719.497620,294.232147 705.274780,285.243439 
	C721.524597,255.626602 737.774414,226.009766 754.153992,196.156403 
	C751.885376,195.001678 750.173645,194.130417 748.229919,193.141052 
	C732.080933,222.789948 715.955139,252.396210 699.132996,281.929199 
	C673.033264,266.619507 646.933533,251.309845 621.167114,235.333710 
	C627.266357,222.267593 633.365540,209.201477 639.600220,195.845154 
	C637.450317,194.788040 635.828796,193.990707 633.875977,193.030487 
	C627.401306,206.621140 621.118103,219.809814 614.251099,232.668289 
	C611.711853,231.150223 609.054749,229.796387 606.660217,228.076767 
	C602.774048,225.285843 599.313721,225.604218 595.259155,228.077896 
	C586.709167,233.294098 577.879944,238.052460 568.859375,242.368057 
	C562.173523,232.725754 555.487000,223.083939 548.802002,213.441055 
	C534.302856,192.526489 519.715149,171.672623 505.326904,150.682037 
	C484.128021,119.755676 463.065277,88.735985 441.956970,57.747589 
	C431.217651,41.981571 420.518768,26.187981 409.750397,10.441845 
	C409.051086,9.419241 407.912140,8.697273 407.004242,7.859940 
	C405.437195,9.023886 404.175049,9.961352 402.686554,11.066954 
	C403.390015,12.526718 403.855560,13.934499 404.664337,15.105135 
	C417.737701,34.027916 430.909576,52.882786 443.948273,71.829338 
	C461.328217,97.084152 478.621826,122.398430 495.934875,147.699219 
	C512.322266,171.647293 528.729187,195.582153 545.039490,219.582596 
	C551.153809,228.579742 557.019958,237.745529 562.382141,247.171127 
	C549.811218,254.494843 537.231201,261.803070 524.671082,269.145294 
	C491.122772,288.756470 457.610565,308.429688 424.001251,327.935699 
	C420.252563,330.111298 418.428314,332.553864 418.908539,337.016052 
	C419.297668,340.631775 418.890594,344.333160 418.230774,347.721405 
	C412.213593,340.371277 406.234131,332.989838 400.170227,325.678467 
	C391.578705,315.319489 382.850159,305.073517 374.317444,294.666687 
	C364.558136,282.763916 355.017273,270.682007 345.254395,258.782196 
	C336.718506,248.377960 327.931244,238.180008 319.390503,227.779694 
	C307.850739,213.727402 296.503265,199.517059 284.939117,185.485062 
	C281.142822,180.878601 280.951904,181.035934 277.075409,186.017517 
	C283.677551,194.140610 290.233154,202.310638 296.902771,210.386459 
	C305.472626,220.763184 314.205200,231.005966 322.735504,241.414764 
	C330.828125,251.289551 338.671082,261.369019 346.769012,271.239319 
	C355.304962,281.643585 364.087280,291.845551 372.625885,302.247650 
	C382.497040,314.273071 392.235931,326.407288 402.000610,338.519745 
	C407.753540,345.655914 413.445160,352.841522 419.054718,360.935913 
	C419.036713,419.906006 419.038208,478.876129 418.948273,537.846130 
	C418.943329,541.093994 420.126282,542.924316 422.929565,544.542847 
	C435.085022,551.560730 447.100067,558.821960 458.839874,566.651306 
	C457.554779,569.444946 456.284943,572.245728 454.982178,575.031128 
	C444.974548,596.427856 435.008209,617.844116 424.934174,639.209595 
	C416.035492,658.082214 406.997070,676.888855 398.056915,695.742004 
	C394.987091,702.215759 392.081635,708.767517 389.007507,715.239197 
	C381.755463,730.505798 374.447113,745.745667 367.051514,760.146362 
	C367.463226,756.820679 365.853973,755.886963 362.713196,755.951416 
	C354.905762,756.111694 347.076904,756.302856 339.287781,755.891724 
	C334.295532,755.628235 332.648560,757.055115 332.826416,762.202576 
	C332.979309,766.627686 333.989319,768.721375 338.683014,768.037292 
	C340.310242,767.800171 342.022003,768.169312 343.658966,767.967834 
	C347.685394,767.472168 349.276367,768.876709 349.087555,773.157166 
	C348.765717,780.455139 348.688690,787.795532 349.107910,795.083618 
	C349.393158,800.042114 347.633209,801.241272 342.921295,801.107727 
	C332.309998,800.807068 332.300201,801.043518 333.234680,811.514648 
	C333.260956,811.809021 333.525177,812.082153 333.891785,812.759155 
	C336.776276,812.888000 339.888519,813.026978 342.976257,813.885742 
	C334.257111,832.394470 325.537964,850.903198 316.764038,869.528259 
	C319.806702,871.381714 322.213654,874.101562 324.473022,869.122070 
	C329.186310,858.734314 334.198578,848.482666 338.950867,838.112244 
	C342.739227,829.845215 346.324249,821.484985 350.931274,813.056946 
	C359.249207,813.037842 367.588379,812.652039 375.877502,813.131165 
	C381.224213,813.440369 382.128723,811.415283 382.174347,806.625610 
	C382.220062,801.828369 380.494751,800.435608 376.128357,800.967651 
	C374.489349,801.167358 372.790649,800.854492 371.144470,801.022766 
	C367.759094,801.368958 366.873810,799.762085 366.954193,796.636536 
	C367.120941,790.152649 367.001251,783.661377 367.640900,776.810852 
	C376.074188,758.657104 384.450745,740.476746 392.954620,722.356079 
	C404.580811,697.582214 416.304199,672.854004 427.985077,648.105774 
	C430.974548,641.772034 433.969086,635.440674 436.947144,629.101562 
	C446.358185,609.069031 455.762543,589.033264 465.751282,569.331177 
	C471.102448,572.532227 476.442749,575.751587 481.806824,578.930908 
	C495.921021,587.296326 510.045563,595.644409 524.009827,604.721436 
	C523.821472,605.165833 523.669556,605.630127 523.439575,606.051758 
	C509.392578,631.801880 495.328491,657.542664 481.292480,683.298706 
	C476.614044,691.883667 472.021484,700.515320 467.362823,709.111084 
	C458.918488,724.691895 450.454041,740.261780 441.081757,755.944214 
	C437.509155,755.944214 433.936584,755.944214 429.730133,755.944214 
	C429.730133,750.478149 429.730133,745.926453 429.730133,741.147949 
	C423.547577,741.955566 418.040710,742.674927 412.256134,743.430603 
	C412.081482,747.345764 413.202026,751.990479 411.373535,754.281921 
	C409.762024,756.301392 404.854736,755.683167 401.407776,756.259155 
	C401.112793,756.308472 400.854675,756.578735 400.381531,756.866821 
	C400.381531,760.315186 400.381531,763.868896 400.381531,767.731262 
	C402.367218,767.832764 403.997986,767.968567 405.630249,767.990417 
	C411.986908,768.075378 411.992004,768.061890 411.998566,774.638855 
	C412.005737,781.802124 411.916534,788.966736 412.025360,796.128418 
	C412.165344,805.343689 418.181915,813.324524 426.861298,814.643982 
	C432.044128,815.431885 437.717102,815.687500 442.723480,814.419922 
	C455.759155,811.119202 454.483582,810.454102 447.955658,800.166443 
	C447.717529,799.791138 447.277252,799.544128 446.982849,799.283264 
	C435.513306,803.668091 429.031982,802.220276 429.956329,791.271729 
	C433.972534,783.567566 437.988739,775.863403 442.811279,768.048401 
	C444.198608,766.886230 446.214294,765.982544 446.823944,764.500427 
	C447.707764,762.351746 447.575439,759.785095 448.477356,756.951294 
	C475.707458,706.967224 502.937531,656.983154 530.767456,607.308472 
	C552.097290,619.834656 573.452332,632.318298 594.736084,644.922302 
	C599.056458,647.480774 602.993408,647.496887 607.294250,644.906921 
	C617.467407,638.780396 627.756470,632.846130 638.622070,627.138794 
	C641.135193,630.092285 643.648376,633.045837 646.185974,636.626160 
	C647.109070,637.457520 648.032227,638.288818 649.230652,639.732117 
	C651.207581,642.154541 653.184509,644.576904 655.185974,647.626160 
	C656.109070,648.457520 657.032166,649.288879 658.231018,650.732483 
	C660.469360,653.191895 662.707703,655.651367 664.987244,658.886658 
	C664.580566,660.441833 664.467590,662.157593 663.719177,663.525879 
	C659.033325,672.092346 654.133667,680.541809 649.440796,689.104553 
	C640.522522,705.377014 631.695679,721.699524 621.921631,738.000305 
	C619.094604,738.001648 616.251831,738.191650 613.444580,737.956787 
	C609.884888,737.658875 608.869568,739.153015 608.938904,742.558411 
	C609.091187,750.035034 608.890808,757.518799 608.211975,765.290161 
	C603.414734,773.909241 598.617493,782.528320 593.593506,791.554810 
	C595.763611,792.729797 597.652649,793.752625 599.410767,794.704590 
	C602.653259,788.956421 605.743530,783.477905 608.943115,778.931152 
	C608.962097,787.914612 608.984009,796.898071 608.999084,805.881531 
	C609.010986,812.990234 609.007263,812.994263 615.876526,812.998840 
	C623.196594,813.003723 630.568970,813.537415 637.820496,812.832458 
	C643.776550,812.253357 649.841492,810.837097 655.403076,808.639954 
	C662.800171,805.717834 664.777893,798.844849 664.952576,791.541199 
	C665.124451,784.356628 662.611633,778.591248 655.411133,775.718323 
	C653.802979,775.076660 652.295227,774.183411 650.383728,773.227173 
	C651.211548,772.650146 651.686340,772.222412 652.237732,771.949463 
	C658.643860,768.778259 662.112732,763.559875 661.885742,756.488647 
	C661.658752,749.421326 658.026062,743.895752 651.228821,741.830139 
	C644.686218,739.841858 637.759827,739.116516 631.027527,737.116089 
	C643.879272,713.404236 656.731079,689.692444 669.931641,665.336975 
	C674.495239,670.711914 678.774353,675.608765 682.895996,680.634766 
	C692.852478,692.775757 702.733643,704.978516 712.648682,717.153564 
	C721.117676,727.552917 729.550598,737.981995 738.078430,748.332886 
	C743.271118,754.635742 748.613586,760.815186 754.159058,767.586914 
	C754.717224,768.391907 755.275391,769.196899 756.128357,770.615295 
	C758.085571,773.021179 760.042847,775.427002 761.359070,778.178711 
	C760.761475,778.446045 760.177917,778.752136 759.564209,778.975037 
	C749.366333,782.678345 745.265198,790.402161 746.922546,801.586121 
	C747.893555,808.138611 755.958435,815.614868 765.734192,815.172424 
	C772.950684,814.845825 779.207153,812.993774 784.634460,808.329651 
	C786.012329,809.583374 787.018494,810.726074 788.233337,811.567383 
	C796.086243,817.005920 798.992737,816.053467 801.852905,807.167908 
	C802.202942,806.080627 802.406006,804.946106 802.677185,803.833435 
	C800.700073,801.305725 799.251587,798.507629 799.118774,795.648376 
	C798.771790,788.180054 799.018066,780.684875 798.995117,773.200500 
	C798.966064,763.747253 793.855713,757.077698 784.745178,755.004150 
	C774.143311,752.591248 763.739624,753.986389 753.084595,756.535217 
	C751.527893,754.643066 749.958374,752.761292 748.416565,750.857178 
	C735.742554,735.205200 723.144409,719.491211 710.382202,703.911499 
	C698.950684,689.956360 687.254883,676.216553 675.935913,662.171997 
	C674.758545,660.711060 674.452148,657.394348 675.278137,655.678345 
	C678.384338,649.225647 682.173401,643.104858 685.622070,636.813293 
	C695.805298,618.236023 705.948120,599.636658 716.555237,580.785400 
	C716.666565,580.469971 716.777893,580.154480 716.874329,579.906860 
M310.356354,760.986816 
	C312.376251,760.482910 314.396118,759.979004 316.846069,759.367798 
	C315.325958,754.713074 314.011108,750.686890 312.513214,746.100281 
	C302.385895,752.606140 291.275940,753.527100 279.946442,754.170288 
	C270.478027,754.707825 262.109619,761.395203 260.451935,769.293640 
	C258.557373,778.320618 260.023651,786.517151 268.845001,791.679504 
	C263.545624,797.646667 261.530823,803.213745 265.097260,808.262451 
	C268.069977,812.470642 272.282104,813.796326 277.135834,814.013855 
	C282.581787,814.257874 288.059357,814.362610 293.442017,815.111328 
	C295.079254,815.339050 297.634186,817.476196 297.658356,818.778076 
	C297.693634,820.677917 296.016541,824.107422 294.729462,824.275146 
	C289.101807,825.008179 283.317108,825.193176 277.665863,824.700317 
	C275.897766,824.546204 274.392975,821.619141 272.714905,820.016479 
	C272.280853,819.601990 271.651184,819.142944 271.104767,819.134705 
	C266.524994,819.064575 261.943695,819.094788 257.441620,819.094788 
	C256.952026,826.646362 260.804535,832.718933 267.155518,834.906921 
	C276.671448,838.185181 286.515015,837.662354 296.162384,836.216431 
	C300.839233,835.515320 305.522919,833.228394 309.623138,830.713318 
	C315.071838,827.371094 316.685608,821.615784 315.836884,815.531311 
	C314.956665,809.220825 310.814758,804.669617 304.914520,803.301392 
	C298.074646,801.715454 290.879211,801.599487 283.822662,801.041260 
	C280.881348,800.808594 278.339508,800.654419 279.614563,796.061096 
	C292.189178,796.373718 305.370209,796.496826 310.427856,781.649841 
	C312.900116,774.392395 311.035858,767.204041 302.700134,762.340515 
	C305.758759,761.742004 307.657288,761.370483 310.356354,760.986816 
M171.896149,751.765137 
	C166.997818,745.291687 160.774536,740.663818 152.577698,739.868591 
	C142.721786,738.912476 132.805237,738.502502 122.904556,738.216248 
	C121.976921,738.189392 120.141975,740.736816 120.131287,742.099976 
	C119.956375,764.397034 120.047844,786.696167 119.960243,808.994263 
	C119.948380,812.015137 120.973328,813.097168 124.002945,813.041382 
	C131.987762,812.894348 140.010284,813.446594 147.955948,812.869263 
	C157.431564,812.180725 165.997482,808.387451 170.860229,799.945129 
	C179.726837,784.551575 179.496948,768.502502 171.896149,751.765137 
M493.236481,767.003662 
	C500.961060,767.688477 503.398773,770.200989 502.272583,777.001038 
	C498.586151,777.001038 494.714813,776.512756 491.024048,777.120667 
	C486.048676,777.940125 480.885925,778.918030 476.389526,781.058655 
	C468.817841,784.663269 465.853882,793.489746 468.107117,802.792480 
	C469.755005,809.596008 477.153656,814.721924 484.960297,815.062561 
	C492.724609,815.401428 499.667511,813.702148 504.898407,808.886475 
	C508.674866,810.793945 511.917816,812.755859 515.409607,814.042297 
	C516.887024,814.586548 520.147583,814.173584 520.432007,813.399719 
	C521.649292,810.087830 522.614441,806.474365 522.584473,802.980225 
	C522.561401,800.281128 520.261841,797.628540 520.127136,794.898315 
	C519.758423,787.429749 520.077515,779.930054 519.975037,772.444763 
	C519.879333,765.459717 516.933472,760.150757 510.558105,756.832214 
	C502.410522,752.591064 493.740875,753.714355 485.236542,754.532898 
	C480.797241,754.960144 476.502655,756.890686 471.887085,758.215637 
	C472.842743,760.809937 473.708191,762.607971 474.162354,764.504456 
	C475.179108,768.750244 477.202423,769.944397 481.594360,768.423462 
	C484.941681,767.264343 488.746552,767.426636 493.236481,767.003662 
M926.207825,754.003784 
	C918.868469,753.105652 912.714600,755.869934 907.086792,761.015320 
	C906.313049,758.972168 905.812317,757.649902 905.188416,756.002441 
	C901.723816,756.002441 898.225464,756.214600 894.764709,755.944885 
	C891.038696,755.654480 889.873169,757.017761 889.927063,760.747437 
	C890.119385,774.060364 890.000610,787.377869 890.000122,800.693604 
	C889.999695,813.133057 890.001343,812.977478 902.679382,813.088806 
	C906.738953,813.124390 908.201477,812.055420 908.089539,807.810547 
	C907.813293,797.331787 907.948547,786.840271 908.033081,776.354736 
	C908.069885,771.789612 912.754395,767.180176 917.211975,767.041260 
	C920.922119,766.925598 922.918823,769.839844 922.977295,775.825073 
	C923.055237,783.813782 922.999451,791.803833 922.999756,799.793274 
	C923.000366,813.888123 922.996033,813.813538 937.279907,813.053711 
	C940.073364,812.905029 941.051392,811.974243 941.030396,809.216003 
	C940.937988,797.066101 941.371765,784.899231 940.870911,772.769226 
	C940.400818,761.384705 935.740479,754.747620 926.207825,754.003784 
M1076.485474,765.101746 
	C1079.533447,762.084473 1078.374878,760.376587 1075.019531,758.406433 
	C1066.327271,753.302368 1056.860474,753.292480 1047.466675,754.229126 
	C1037.980469,755.174927 1030.292847,763.292419 1030.040405,771.268555 
	C1029.799316,778.885437 1035.850098,785.803528 1045.197998,788.591370 
	C1049.150757,789.770142 1053.270630,790.576172 1056.992798,792.262268 
	C1058.935059,793.142090 1060.178833,795.563660 1061.738159,797.288879 
	C1059.650635,798.851746 1057.716431,801.438660 1055.445679,801.778992 
	C1049.466431,802.675232 1043.633179,801.533997 1038.394165,798.025330 
	C1037.321899,797.307251 1034.897583,796.910522 1034.256470,797.542419 
	C1031.601807,800.159424 1029.392334,803.227844 1026.914917,806.258118 
	C1031.810791,811.388550 1037.823730,813.694275 1044.234131,814.511536 
	C1053.315186,815.669250 1062.471924,815.986694 1070.818726,811.036316 
	C1077.004150,807.368042 1080.264648,802.007874 1079.996826,794.687500 
	C1079.752686,788.011658 1076.447510,783.455200 1070.266479,781.128601 
	C1064.562500,778.981750 1058.677124,777.297363 1053.048950,774.979004 
	C1051.178223,774.208374 1049.856934,772.104065 1048.284424,770.609558 
	C1050.227661,769.409424 1052.274414,767.056213 1054.095093,767.219910 
	C1060.166870,767.765869 1066.157349,769.213989 1072.928711,770.453552 
	C1073.560425,769.510925 1074.836182,767.607117 1076.485474,765.101746 
M719.009949,776.449036 
	C720.982605,784.251892 726.714966,777.782166 730.617920,780.536255 
	C731.836365,772.533142 733.098206,765.584167 733.778076,758.578796 
	C733.904419,757.276611 731.823792,754.669922 730.531433,754.508484 
	C724.847534,753.798462 718.865051,752.657288 713.790100,756.630493 
	C710.481689,759.220581 707.439697,762.150940 704.308960,764.902039 
	C703.946960,763.440247 703.741089,761.096802 702.754395,759.148926 
	C702.081116,757.819763 700.372864,756.254639 699.031067,756.159851 
	C694.062195,755.809082 689.046753,755.890381 684.065063,756.137268 
	C683.028809,756.188660 681.336609,757.535828 681.200867,758.468323 
	C680.810852,761.147949 681.063354,763.921082 681.063354,766.582214 
	C683.739624,766.919922 685.524231,767.145081 687.551392,767.400879 
	C687.551392,778.928223 687.551392,790.272461 687.551392,801.547485 
	C685.192383,801.922302 683.282837,802.225769 681.453979,802.516357 
	C681.453979,806.128296 681.453979,809.344299 681.453979,812.956848 
	C692.697632,812.956848 703.494812,813.056519 714.288513,812.906921 
	C718.490356,812.848694 716.799988,809.314148 716.901672,807.202820 
	C716.998657,805.188293 718.094543,802.293640 714.213745,801.988403 
	C711.546936,801.778748 707.735352,802.015991 706.571472,800.457886 
	C705.186584,798.604004 706.069458,795.042419 706.007019,792.219849 
	C705.970276,790.556152 705.945801,788.888123 706.018982,787.226562 
	C706.339050,779.963318 712.475952,771.881897 719.001709,770.578674 
	C719.001709,772.301514 719.001709,773.942505 719.009949,776.449036 
M545.503418,745.000000 
	C555.206055,745.153381 553.928772,743.774597 553.981445,753.494934 
	C554.056152,767.305054 553.936401,781.116394 554.026428,794.926392 
	C554.086853,804.193604 558.609680,811.741943 566.789978,814.118103 
	C573.979187,816.206360 581.530090,815.797729 588.612183,812.654480 
	C589.444397,812.285034 590.460999,811.553406 590.709045,810.772705 
	C592.253418,805.912292 586.683350,799.996155 581.781738,801.163330 
	C574.927368,802.795410 572.011902,800.625671 572.005859,793.813843 
	C571.989441,775.177917 571.994873,756.541992 572.002441,737.906067 
	C572.003479,735.368164 572.364563,732.886353 568.398926,732.959351 
	C559.084167,733.130920 549.762878,732.947205 540.447815,733.108032 
	C539.320190,733.127441 537.503601,734.160400 537.210999,735.099243 
	C535.005493,742.173462 537.185303,744.984375 545.503418,745.000000 
M856.000000,771.504517 
	C855.994568,767.507019 856.178040,763.494934 855.869629,759.520935 
	C855.775879,758.313416 854.346680,756.229736 853.491699,756.210449 
	C843.222351,755.979248 832.945984,756.060974 822.339600,756.060974 
	C822.339600,760.219055 822.339600,763.770630 822.339600,768.016235 
	C826.596497,768.016235 830.547302,768.101624 834.492188,767.985718 
	C837.061462,767.910217 838.042480,768.940247 838.016968,771.507446 
	C837.931030,780.167847 837.931091,788.830139 838.016846,797.490540 
	C838.042236,800.055481 837.065796,801.090088 834.494202,801.014282 
	C830.549683,800.898010 826.599243,800.983704 822.342285,800.983704 
	C822.342285,805.230347 822.342285,808.781555 822.342285,812.663940 
	C838.563965,812.663940 854.444336,812.663940 870.662598,812.663940 
	C870.662598,808.776428 870.662598,805.224792 870.662598,800.992310 
	C866.898621,800.992310 863.442139,800.852234 860.002625,801.034241 
	C856.959778,801.195374 855.906128,800.009399 855.958435,796.986572 
	C856.099609,788.827454 856.002502,780.664185 856.000000,771.504517 
M228.000000,768.515625 
	C227.990295,765.351013 228.183502,762.165283 227.858063,759.033447 
	C227.747849,757.972778 226.342590,756.206055 225.501770,756.189880 
	C215.230148,755.992737 204.953430,756.061707 194.342850,756.061707 
	C194.342850,760.212524 194.342850,763.764099 194.342850,768.015991 
	C198.589828,768.015991 202.539597,768.100403 206.483582,767.985901 
	C209.043259,767.911621 210.042908,768.921997 210.017029,771.498840 
	C209.930023,780.159302 209.931854,788.821716 210.016571,797.482239 
	C210.041565,800.038086 209.083160,801.091309 206.502411,801.014404 
	C202.557281,800.896729 198.606033,800.983459 194.339386,800.983459 
	C194.339386,805.224426 194.339386,808.775696 194.339386,812.663452 
	C210.558121,812.663452 226.438629,812.663452 242.659805,812.663452 
	C242.659805,808.781982 242.659805,805.230347 242.659805,800.992310 
	C238.905365,800.992310 235.449234,800.853271 232.009918,801.033936 
	C228.976059,801.193298 227.913376,800.025208 227.958038,796.994019 
	C228.092941,787.834961 228.002563,778.672546 228.000000,768.515625 
M976.180237,741.172058 
	C976.453369,743.287354 976.804688,745.395996 976.984070,747.519226 
	C977.408447,752.543762 977.751038,757.575256 978.155640,762.990479 
	C981.662720,762.990479 984.465576,762.877380 987.255127,763.022278 
	C990.037842,763.166870 990.938293,762.031250 991.054626,759.264465 
	C991.413147,750.734802 992.061035,742.217285 992.612976,733.432434 
	C987.140869,733.432434 981.793457,733.432434 976.060974,733.432434 
	C976.060974,735.995789 976.060974,738.128967 976.180237,741.172058 
M362.773987,743.585022 
	C363.804016,742.111694 365.081360,740.751465 365.816284,739.143311 
	C367.783569,734.838623 366.466400,730.842468 363.221008,727.977600 
	C359.668488,724.841675 355.120758,725.186584 351.075134,727.089722 
	C346.839355,729.082520 345.357635,732.937134 346.103455,737.480713 
	C347.165802,743.952454 354.163391,746.739502 362.773987,743.585022 
M226.549789,731.119263 
	C223.635895,726.333008 220.126373,724.754700 214.338303,726.148376 
	C210.324860,727.114746 207.674637,729.796936 207.066040,734.009277 
	C206.430542,738.407715 207.965622,742.579102 212.105988,743.738647 
	C215.735870,744.755188 220.596603,744.816833 223.770370,743.138428 
	C227.611404,741.107117 228.703995,736.411743 226.549789,731.119263 
M836.425110,740.791260 
	C837.365784,741.726135 838.197876,742.815674 839.267700,743.566528 
	C842.295471,745.691406 849.856384,745.967896 851.837891,743.240845 
	C853.759216,740.596313 855.503662,736.696228 855.055359,733.685608 
	C854.042236,726.883240 848.223450,724.164490 841.523254,726.279663 
	C835.976624,728.030640 833.759766,733.636414 836.425110,740.791260 
z"/>
<path fill="#01ADB5" opacity="1.000000" stroke="none" 
	d="
M418.836670,347.996552 
	C418.890594,344.333160 419.297668,340.631775 418.908539,337.016052 
	C418.428314,332.553864 420.252563,330.111298 424.001251,327.935699 
	C457.610565,308.429688 491.122772,288.756470 524.671082,269.145294 
	C537.231201,261.803070 549.811218,254.494843 563.027954,247.105591 
	C564.733704,248.263275 565.919250,249.399719 566.833862,250.723328 
	C574.696228,262.101074 582.509521,273.512634 590.600159,285.296661 
	C591.793396,283.319916 592.676331,281.857178 593.645996,280.250916 
	C594.869690,281.583191 595.969360,282.780396 597.117188,284.373657 
	C594.555969,288.965973 595.156616,292.420502 598.144592,296.608215 
	C609.727173,312.841461 620.810120,329.431091 632.094666,345.877350 
	C638.142090,354.690948 644.221252,363.482758 650.556213,372.676453 
	C651.869019,370.748505 652.748413,369.456970 653.736084,368.006470 
	C655.121765,369.476379 656.300415,370.726685 657.690979,372.201813 
	C663.520081,361.508331 669.130615,351.151306 674.801208,340.827209 
	C684.864624,322.505280 694.964539,304.203369 705.049194,285.893097 
	C719.497620,294.232147 733.950684,302.563019 748.392761,310.913025 
	C758.129150,316.542267 767.759033,322.364838 777.622559,327.760834 
	C781.575317,329.923279 783.147583,332.418945 783.120789,337.091797 
	C782.919922,372.081726 783.038574,407.073486 783.031860,442.897339 
	C771.997498,464.544891 760.988525,485.359833 749.571289,506.946594 
	C718.624695,461.847809 688.197571,417.506042 657.586182,372.895691 
	C656.344482,374.809570 655.404236,376.258789 654.423645,377.770264 
	C653.044800,376.248322 651.881165,374.963928 650.505188,373.445099 
	C622.263855,425.269836 594.254578,476.668671 565.949890,528.609741 
	C548.056580,506.817657 530.867188,485.882843 513.479248,464.706238 
	C512.396790,466.617157 511.515900,468.172150 510.583893,469.817352 
	C509.175537,468.489868 507.897064,467.284790 506.344208,465.821136 
	C504.644073,469.482819 503.132080,472.759735 501.603119,476.028687 
	C493.311157,493.756775 485.049408,511.499146 476.708588,529.204224 
	C470.918488,541.494751 465.017548,553.733032 459.166138,565.994690 
	C447.100067,558.821960 435.085022,551.560730 422.929565,544.542847 
	C420.126282,542.924316 418.943329,541.093994 418.948273,537.846130 
	C419.038208,478.876129 419.036713,419.906006 419.442444,360.519592 
	C420.332397,360.512115 420.922241,360.849121 421.324249,361.339966 
	C445.586670,390.963715 469.826508,420.605927 494.089142,450.229523 
	C498.114777,455.144623 502.233307,459.983673 506.462891,465.042023 
	C507.666779,463.038116 508.542297,461.580811 509.466522,460.042389 
	C510.863861,461.505768 511.983337,462.678131 513.220215,463.973511 
	C514.633362,461.238953 515.966248,458.851288 517.127197,456.382782 
	C526.926270,435.547729 536.700500,414.700989 546.469604,393.851898 
	C561.972839,360.765167 577.410706,327.647552 593.038147,294.619629 
	C594.884216,290.718079 593.622864,288.605042 590.467468,286.350555 
	C563.398743,344.062103 536.470642,401.473785 509.424774,459.136444 
	C508.525330,458.284912 508.125702,457.980225 507.815247,457.602264 
	C479.069885,422.607605 450.324371,387.613037 421.618347,352.586121 
	C420.495758,351.216370 419.755219,349.533508 418.836670,347.996552 
z"/>
<path fill="#01ADB5" opacity="1.000000" stroke="none" 
	d="
M782.836182,459.003967 
	C782.888123,485.627899 782.891479,512.252136 783.042236,538.875427 
	C783.065918,543.059814 779.942932,543.914185 776.755859,545.572998 
	C768.624756,534.705383 761.011230,523.699707 753.171875,512.367676 
	C751.872253,514.236877 750.962830,515.544983 749.850342,517.145142 
	C748.615173,515.573242 747.622375,514.309753 746.450012,512.817749 
	C745.755676,513.793335 745.115356,514.524475 744.660706,515.356934 
	C736.774963,529.797241 728.979736,544.287354 721.021057,558.687256 
	C715.402649,568.853027 709.569275,578.899963 703.481812,589.036011 
	C701.634827,589.763672 700.068726,590.336731 698.651245,591.164490 
	C680.421997,601.810120 662.213989,612.492126 643.688354,623.020508 
	C620.287903,594.762817 597.144165,566.694763 574.184509,538.476929 
	C571.446838,535.112183 569.404968,533.573364 566.559509,537.897400 
	C565.184021,536.645874 564.090576,535.651001 562.870178,534.482605 
	C562.489685,533.961548 562.236267,533.614075 562.364929,533.264404 
	C563.893433,531.981445 565.039856,530.700745 566.205017,529.398926 
	C567.515076,530.623901 568.641602,531.677368 570.088928,533.030701 
	C598.240417,481.361572 626.146790,430.142395 654.367798,378.345703 
	C685.245056,423.346985 715.594543,467.579071 746.093018,512.028259 
	C747.468018,510.058838 748.450928,508.650909 749.487305,507.166473 
	C750.738647,508.684021 751.756714,509.918640 753.081055,511.524750 
	C754.037048,509.925385 754.823547,508.706299 755.516174,507.436035 
	C762.355591,494.891846 769.124268,482.308594 776.041626,469.807617 
	C778.098145,466.091125 780.560059,462.598938 782.836182,459.003967 
z"/>
<path fill="#EBEDED" opacity="1.000000" stroke="none" 
	d="
M782.914673,458.639832 
	C780.560059,462.598938 778.098145,466.091125 776.041626,469.807617 
	C769.124268,482.308594 762.355591,494.891846 755.516174,507.436035 
	C754.823547,508.706299 754.037048,509.925385 753.081055,511.524750 
	C751.756714,509.918640 750.738647,508.684021 749.487305,507.166473 
	C748.450928,508.650909 747.468018,510.058838 746.093018,512.028259 
	C715.594543,467.579071 685.245056,423.346985 654.367798,378.345703 
	C626.146790,430.142395 598.240417,481.361572 570.088928,533.030701 
	C568.641602,531.677368 567.515076,530.623901 566.205017,529.398926 
	C565.039856,530.700745 563.893433,531.981445 562.245300,532.937256 
	C544.823547,511.966949 527.903564,491.321533 510.638916,470.255585 
	C498.764923,495.663879 487.198730,520.298523 475.746307,544.986023 
	C472.066376,552.918640 468.686615,560.990601 465.169495,568.998779 
	C455.762543,589.033264 446.358185,609.069031 436.947144,629.101562 
	C433.969086,635.440674 430.974548,641.772034 427.985077,648.105774 
	C416.304199,672.854004 404.580811,697.582214 392.954620,722.356079 
	C384.450745,740.476746 376.074188,758.657104 366.959717,776.742737 
	C366.572906,771.448547 366.867249,766.222412 367.161560,760.996338 
	C374.447113,745.745667 381.755463,730.505798 389.007507,715.239197 
	C392.081635,708.767517 394.987091,702.215759 398.056915,695.742004 
	C406.997070,676.888855 416.035492,658.082214 424.934174,639.209595 
	C435.008209,617.844116 444.974548,596.427856 454.982178,575.031128 
	C456.284943,572.245728 457.554779,569.444946 459.003021,566.322998 
	C465.017548,553.733032 470.918488,541.494751 476.708588,529.204224 
	C485.049408,511.499146 493.311157,493.756775 501.603119,476.028687 
	C503.132080,472.759735 504.644073,469.482819 506.344208,465.821136 
	C507.897064,467.284790 509.175537,468.489868 510.583893,469.817352 
	C511.515900,468.172150 512.396790,466.617157 513.479248,464.706238 
	C530.867188,485.882843 548.056580,506.817657 565.949890,528.609741 
	C594.254578,476.668671 622.263855,425.269836 650.505188,373.445099 
	C651.881165,374.963928 653.044800,376.248322 654.423645,377.770264 
	C655.404236,376.258789 656.344482,374.809570 657.586182,372.895691 
	C688.197571,417.506042 718.624695,461.847809 749.571289,506.946594 
	C760.988525,485.359833 771.997498,464.544891 783.085083,443.363037 
	C788.300842,433.959106 793.562927,424.990448 798.552185,415.872559 
	C814.755005,386.262421 830.881592,356.610504 846.990356,326.949005 
	C856.643738,309.173828 866.165466,291.327148 875.824219,273.554901 
	C890.381226,246.769943 905.006348,220.022049 919.744934,192.997330 
	C921.374268,193.759674 923.093140,194.563919 925.556519,195.716522 
	C922.770996,200.983551 920.124207,206.123962 917.353821,211.196869 
	C912.275818,220.495148 907.081421,229.729950 902.012390,239.033127 
	C887.030579,266.529480 872.113159,294.060944 857.119019,321.550629 
	C843.847168,345.882721 830.477966,370.161713 817.207153,394.494385 
	C810.100342,407.525024 803.093872,420.610535 796.073669,433.688263 
	C791.682983,441.867676 787.351257,450.078766 782.914673,458.639832 
z"/>
<path fill="#01ADB5" opacity="1.000000" stroke="none" 
	d="
M465.460388,569.164978 
	C468.686615,560.990601 472.066376,552.918640 475.746307,544.986023 
	C487.198730,520.298523 498.764923,495.663879 510.638916,470.255585 
	C527.903564,491.321533 544.823547,511.966949 561.863159,532.939453 
	C562.236267,533.614075 562.489685,533.961548 562.595032,534.718994 
	C554.121582,550.382507 545.853516,565.667603 537.447205,580.876404 
	C533.147888,588.654663 528.600952,596.296143 524.165955,603.999451 
	C510.045563,595.644409 495.921021,587.296326 481.806824,578.930908 
	C476.442749,575.751587 471.102448,572.532227 465.460388,569.164978 
z"/>
<path fill="#01ADB5" opacity="1.000000" stroke="none" 
	d="
M620.833801,236.000183 
	C646.933533,251.309845 673.033264,266.619507 699.492432,282.315704 
	C684.579651,310.789673 669.307434,338.877167 653.829895,367.342133 
	C635.038635,339.977142 616.619324,313.164642 598.242493,286.323059 
	C597.826050,285.714783 597.891052,284.776886 597.930054,283.686279 
	C599.350403,280.844727 600.577820,278.312286 601.793335,275.774139 
	C608.141785,262.516968 614.487305,249.258316 620.833801,236.000183 
z"/>
<path fill="#01ADB5" opacity="1.000000" stroke="none" 
	d="
M637.998657,626.834106 
	C627.756470,632.846130 617.467407,638.780396 607.294250,644.906921 
	C602.993408,647.496887 599.056458,647.480774 594.736084,644.922302 
	C573.452332,632.318298 552.097290,619.834656 530.475464,606.806274 
	C542.304138,584.087219 554.424744,561.870300 567.420715,538.049011 
	C568.434204,540.086121 568.684631,540.949402 569.208008,541.589478 
	C589.842041,566.823792 610.521179,592.021362 631.130005,617.276245 
	C633.605835,620.310181 635.717957,623.640930 637.998657,626.834106 
z"/>
<path fill="#ECEEEE" opacity="1.000000" stroke="none" 
	d="
M703.831787,588.999878 
	C709.569275,578.899963 715.402649,568.853027 721.021057,558.687256 
	C728.979736,544.287354 736.774963,529.797241 744.660706,515.356934 
	C745.115356,514.524475 745.755676,513.793335 746.450012,512.817749 
	C747.622375,514.309753 748.615173,515.573242 749.850342,517.145142 
	C750.962830,515.544983 751.872253,514.236877 753.171875,512.367676 
	C761.011230,523.699707 768.624756,534.705383 776.535828,545.854492 
	C788.193787,562.531372 799.589844,579.040344 810.906982,595.603333 
	C830.769775,624.673218 850.555298,653.795959 870.434814,682.854370 
	C877.323608,692.923889 884.395569,702.868042 891.376282,712.858521 
	C885.704224,716.895752 885.774353,716.848083 882.171692,711.545898 
	C860.369324,679.458923 838.592285,647.354492 816.686218,615.338440 
	C801.770752,593.539124 786.658447,571.874512 771.309875,549.641724 
	C764.196533,538.840088 757.407532,528.546509 750.277710,517.736206 
	C749.252991,519.159302 748.723328,519.750366 748.354248,520.428772 
	C741.232605,533.516174 734.068787,546.581299 727.048584,559.723145 
	C723.498169,566.369385 720.214111,573.157837 716.809570,579.881958 
	C716.809570,579.881958 716.874329,579.906860 716.553345,579.861938 
	C716.190552,580.226685 716.148682,580.636292 716.106750,581.045898 
	C705.948120,599.636658 695.805298,618.236023 685.622070,636.813293 
	C682.173401,643.104858 678.384338,649.225647 675.278137,655.678345 
	C674.452148,657.394348 674.758545,660.711060 675.935913,662.171997 
	C687.254883,676.216553 698.950684,689.956360 710.382202,703.911499 
	C723.144409,719.491211 735.742554,735.205200 748.416565,750.857178 
	C749.958374,752.761292 751.527893,754.643066 753.040771,757.144043 
	C753.294250,760.851929 753.591492,763.951050 753.888794,767.050110 
	C748.613586,760.815186 743.271118,754.635742 738.078430,748.332886 
	C729.550598,737.981995 721.117676,727.552917 712.648682,717.153564 
	C702.733643,704.978516 692.852478,692.775757 682.895996,680.634766 
	C678.774353,675.608765 674.495239,670.711914 669.931641,665.336975 
	C656.731079,689.692444 643.879272,713.404236 630.620972,737.558777 
	C627.753235,738.001404 625.291992,738.001343 622.830811,738.001221 
	C631.695679,721.699524 640.522522,705.377014 649.440796,689.104553 
	C654.133667,680.541809 659.033325,672.092346 663.719177,663.525879 
	C664.467590,662.157593 664.580566,660.441833 665.217896,658.307617 
	C666.245117,657.485535 667.041809,657.242493 667.792603,657.355713 
	C668.086243,659.536926 668.425720,661.361816 668.765198,663.186707 
	C672.571960,659.647888 672.987915,657.059021 668.039307,655.715454 
	C668.036682,654.498840 668.039307,653.687805 668.378174,652.808289 
	C670.999695,648.807800 673.373779,644.924377 675.554871,640.935425 
	C685.011230,623.640381 694.411255,606.314514 703.831787,588.999878 
z"/>
<path fill="#EBEDED" opacity="1.000000" stroke="none" 
	d="
M418.533691,347.858978 
	C419.755219,349.533508 420.495758,351.216370 421.618347,352.586121 
	C450.324371,387.613037 479.069885,422.607605 507.815247,457.602264 
	C508.125702,457.980225 508.525330,458.284912 509.424774,459.136444 
	C536.470642,401.473785 563.398743,344.062103 590.467468,286.350555 
	C593.622864,288.605042 594.884216,290.718079 593.038147,294.619629 
	C577.410706,327.647552 561.972839,360.765167 546.469604,393.851898 
	C536.700500,414.700989 526.926270,435.547729 517.127197,456.382782 
	C515.966248,458.851288 514.633362,461.238953 513.220215,463.973511 
	C511.983337,462.678131 510.863861,461.505768 509.466522,460.042389 
	C508.542297,461.580811 507.666779,463.038116 506.462891,465.042023 
	C502.233307,459.983673 498.114777,455.144623 494.089142,450.229523 
	C469.826508,420.605927 445.586670,390.963715 421.324249,361.339966 
	C420.922241,360.849121 420.332397,360.512115 419.497284,360.054077 
	C413.445160,352.841522 407.753540,345.655914 402.000610,338.519745 
	C392.235931,326.407288 382.497040,314.273071 372.625885,302.247650 
	C364.087280,291.845551 355.304962,281.643585 346.769012,271.239319 
	C338.671082,261.369019 330.828125,251.289551 322.735504,241.414764 
	C314.205200,231.005966 305.472626,220.763184 296.902771,210.386459 
	C290.233154,202.310638 283.677551,194.140610 277.075409,186.017517 
	C280.951904,181.035934 281.142822,180.878601 284.939117,185.485062 
	C296.503265,199.517059 307.850739,213.727402 319.390503,227.779694 
	C327.931244,238.180008 336.718506,248.377960 345.254395,258.782196 
	C355.017273,270.682007 364.558136,282.763916 374.317444,294.666687 
	C382.850159,305.073517 391.578705,315.319489 400.170227,325.678467 
	C406.234131,332.989838 412.213593,340.371277 418.533691,347.858978 
z"/>
<path fill="#00ADB5" opacity="1.000000" stroke="none" 
	d="
M309.956055,760.992920 
	C307.657288,761.370483 305.758759,761.742004 302.700134,762.340515 
	C311.035858,767.204041 312.900116,774.392395 310.427856,781.649841 
	C305.370209,796.496826 292.189178,796.373718 279.614563,796.061096 
	C278.339508,800.654419 280.881348,800.808594 283.822662,801.041260 
	C290.879211,801.599487 298.074646,801.715454 304.914520,803.301392 
	C310.814758,804.669617 314.956665,809.220825 315.836884,815.531311 
	C316.685608,821.615784 315.071838,827.371094 309.623138,830.713318 
	C305.522919,833.228394 300.839233,835.515320 296.162384,836.216431 
	C286.515015,837.662354 276.671448,838.185181 267.155518,834.906921 
	C260.804535,832.718933 256.952026,826.646362 257.441620,819.094788 
	C261.943695,819.094788 266.524994,819.064575 271.104767,819.134705 
	C271.651184,819.142944 272.280853,819.601990 272.714905,820.016479 
	C274.392975,821.619141 275.897766,824.546204 277.665863,824.700317 
	C283.317108,825.193176 289.101807,825.008179 294.729462,824.275146 
	C296.016541,824.107422 297.693634,820.677917 297.658356,818.778076 
	C297.634186,817.476196 295.079254,815.339050 293.442017,815.111328 
	C288.059357,814.362610 282.581787,814.257874 277.135834,814.013855 
	C272.282104,813.796326 268.069977,812.470642 265.097260,808.262451 
	C261.530823,803.213745 263.545624,797.646667 268.845001,791.679504 
	C260.023651,786.517151 258.557373,778.320618 260.451935,769.293640 
	C262.109619,761.395203 270.478027,754.707825 279.946442,754.170288 
	C291.275940,753.527100 302.385895,752.606140 312.513214,746.100281 
	C314.011108,750.686890 315.325958,754.713074 316.846069,759.367798 
	C314.396118,759.979004 312.376251,760.482910 309.956055,760.992920 
M287.846375,765.863892 
	C282.530579,765.173523 278.863342,767.295288 278.082092,771.513306 
	C276.704590,778.950500 278.705719,782.889038 284.564362,784.271545 
	C288.145966,785.116699 292.631531,782.785034 293.703827,779.520691 
	C295.722015,773.376770 293.623444,767.789978 287.846375,765.863892 
z"/>
<path fill="#00ADB5" opacity="1.000000" stroke="none" 
	d="
M622.376221,738.000732 
	C625.291992,738.001343 627.753235,738.001404 630.608215,737.918884 
	C637.759827,739.116516 644.686218,739.841858 651.228821,741.830139 
	C658.026062,743.895752 661.658752,749.421326 661.885742,756.488647 
	C662.112732,763.559875 658.643860,768.778259 652.237732,771.949463 
	C651.686340,772.222412 651.211548,772.650146 650.383728,773.227173 
	C652.295227,774.183411 653.802979,775.076660 655.411133,775.718323 
	C662.611633,778.591248 665.124451,784.356628 664.952576,791.541199 
	C664.777893,798.844849 662.800171,805.717834 655.403076,808.639954 
	C649.841492,810.837097 643.776550,812.253357 637.820496,812.832458 
	C630.568970,813.537415 623.196594,813.003723 615.876526,812.998840 
	C609.007263,812.994263 609.010986,812.990234 608.999084,805.881531 
	C608.984009,796.898071 608.962097,787.914612 608.957092,778.006104 
	C608.925537,773.053955 608.879944,769.026855 608.834412,764.999695 
	C608.890808,757.518799 609.091187,750.035034 608.938904,742.558411 
	C608.869568,739.153015 609.884888,737.658875 613.444580,737.956787 
	C616.251831,738.191650 619.094604,738.001648 622.376221,738.000732 
M627.000000,787.587524 
	C627.000000,788.750000 626.999939,789.912415 627.000000,791.074890 
	C627.000488,800.326843 628.814941,801.771606 638.010071,799.841736 
	C644.853821,798.405273 647.920898,792.185730 644.923157,785.823303 
	C642.547791,780.781921 635.637390,778.769897 627.000000,780.914001 
	C627.000000,782.719238 627.000000,784.672119 627.000000,787.587524 
M642.871216,757.059204 
	C640.216736,751.799561 634.148315,749.787781 627.410645,751.944336 
	C627.410645,757.142639 627.410645,762.340942 627.410645,767.471313 
	C638.468201,768.952148 644.570312,765.039612 642.871216,757.059204 
z"/>
<path fill="#00ADB5" opacity="1.000000" stroke="none" 
	d="
M172.022247,752.113159 
	C179.496948,768.502502 179.726837,784.551575 170.860229,799.945129 
	C165.997482,808.387451 157.431564,812.180725 147.955948,812.869263 
	C140.010284,813.446594 131.987762,812.894348 124.002945,813.041382 
	C120.973328,813.097168 119.948380,812.015137 119.960243,808.994263 
	C120.047844,786.696167 119.956375,764.397034 120.131287,742.099976 
	C120.141975,740.736816 121.976921,738.189392 122.904556,738.216248 
	C132.805237,738.502502 142.721786,738.912476 152.577698,739.868591 
	C160.774536,740.663818 166.997818,745.291687 172.022247,752.113159 
M139.001175,758.616211 
	C139.001175,772.225708 139.001175,785.835205 139.001175,799.302246 
	C148.256699,800.955078 155.310867,796.988159 156.745346,788.506226 
	C157.978165,781.216858 158.595642,773.514404 157.639359,766.237122 
	C156.247055,755.641785 151.147446,750.399292 139.001251,751.823730 
	C139.001251,753.722595 139.001251,755.689087 139.001175,758.616211 
z"/>
<path fill="#EDEEEE" opacity="1.000000" stroke="none" 
	d="
M621.000488,235.666946 
	C614.487305,249.258316 608.141785,262.516968 601.793335,275.774139 
	C600.577820,278.312286 599.350403,280.844727 597.764404,283.680420 
	C597.400391,283.981018 597.069031,283.977600 597.069031,283.977600 
	C595.969360,282.780396 594.869690,281.583191 593.645996,280.250916 
	C592.676331,281.857178 591.793396,283.319916 590.600159,285.296661 
	C582.509521,273.512634 574.696228,262.101074 566.833862,250.723328 
	C565.919250,249.399719 564.733704,248.263275 563.336487,246.937225 
	C557.019958,237.745529 551.153809,228.579742 545.039490,219.582596 
	C528.729187,195.582153 512.322266,171.647293 495.934875,147.699219 
	C478.621826,122.398430 461.328217,97.084152 443.948273,71.829338 
	C430.909576,52.882786 417.737701,34.027916 404.664337,15.105135 
	C403.855560,13.934499 403.390015,12.526718 402.686554,11.066954 
	C404.175049,9.961352 405.437195,9.023886 407.004242,7.859940 
	C407.912140,8.697273 409.051086,9.419241 409.750397,10.441845 
	C420.518768,26.187981 431.217651,41.981571 441.956970,57.747589 
	C463.065277,88.735985 484.128021,119.755676 505.326904,150.682037 
	C519.715149,171.672623 534.302856,192.526489 548.802002,213.441055 
	C555.487000,223.083939 562.173523,232.725754 568.996704,243.029297 
	C577.158691,255.488205 585.183350,267.285889 593.576416,279.625214 
	C596.695190,273.040894 599.607971,267.100708 602.338806,261.078094 
	C606.569397,251.747803 610.675903,242.361221 614.834961,232.998505 
	C621.118103,219.809814 627.401306,206.621140 633.875977,193.030487 
	C635.828796,193.990707 637.450317,194.788040 639.600220,195.845154 
	C633.365540,209.201477 627.266357,222.267593 621.000488,235.666946 
z"/>
<path fill="#ECEEEE" opacity="1.000000" stroke="none" 
	d="
M667.838440,656.999390 
	C667.041809,657.242493 666.245117,657.485535 665.197266,657.919678 
	C662.707703,655.651367 660.469360,653.191895 658.055664,650.089050 
	C656.973999,648.630188 656.067749,647.814758 655.161499,646.999329 
	C653.184509,644.576904 651.207581,642.154541 649.055420,639.088867 
	C647.973999,637.630188 647.067749,636.814758 646.161499,635.999329 
	C643.648376,633.045837 641.135193,630.092285 638.310364,626.986450 
	C635.717957,623.640930 633.605835,620.310181 631.130005,617.276245 
	C610.521179,592.021362 589.842041,566.823792 569.208008,541.589478 
	C568.684631,540.949402 568.434204,540.086121 567.420715,538.049011 
	C554.424744,561.870300 542.304138,584.087219 530.175537,606.651611 
	C502.937531,656.983154 475.707458,706.967224 448.027771,756.793213 
	C445.718140,756.368774 443.858063,756.102478 441.997986,755.836182 
	C450.454041,740.261780 458.918488,724.691895 467.362823,709.111084 
	C472.021484,700.515320 476.614044,691.883667 481.292480,683.298706 
	C495.328491,657.542664 509.392578,631.801880 523.439575,606.051758 
	C523.669556,605.630127 523.821472,605.165833 524.087891,604.360474 
	C528.600952,596.296143 533.147888,588.654663 537.447205,580.876404 
	C545.853516,565.667603 554.121582,550.382507 562.722046,534.892578 
	C564.090576,535.651001 565.184021,536.645874 566.559509,537.897400 
	C569.404968,533.573364 571.446838,535.112183 574.184509,538.476929 
	C597.144165,566.694763 620.287903,594.762817 643.820862,623.318115 
	C646.192017,626.133362 648.118408,628.506592 650.082275,631.217041 
	C651.026062,632.369690 651.932251,633.185059 652.986206,634.307800 
	C655.104126,637.036743 657.074463,639.458313 659.082275,642.217041 
	C660.026062,643.369690 660.932251,644.185059 661.986206,645.307861 
	C664.103210,648.035767 666.072571,650.456238 668.041931,652.876709 
	C668.039307,653.687805 668.036682,654.498840 668.008789,655.940002 
	C667.983521,656.570068 667.838440,656.999390 667.838440,656.999390 
z"/>
<path fill="#00ADB5" opacity="1.000000" stroke="none" 
	d="
M492.792175,767.002319 
	C488.746552,767.426636 484.941681,767.264343 481.594360,768.423462 
	C477.202423,769.944397 475.179108,768.750244 474.162354,764.504456 
	C473.708191,762.607971 472.842743,760.809937 471.887085,758.215637 
	C476.502655,756.890686 480.797241,754.960144 485.236542,754.532898 
	C493.740875,753.714355 502.410522,752.591064 510.558105,756.832214 
	C516.933472,760.150757 519.879333,765.459717 519.975037,772.444763 
	C520.077515,779.930054 519.758423,787.429749 520.127136,794.898315 
	C520.261841,797.628540 522.561401,800.281128 522.584473,802.980225 
	C522.614441,806.474365 521.649292,810.087830 520.432007,813.399719 
	C520.147583,814.173584 516.887024,814.586548 515.409607,814.042297 
	C511.917816,812.755859 508.674866,810.793945 504.898407,808.886475 
	C499.667511,813.702148 492.724609,815.401428 484.960297,815.062561 
	C477.153656,814.721924 469.755005,809.596008 468.107117,802.792480 
	C465.853882,793.489746 468.817841,784.663269 476.389526,781.058655 
	C480.885925,778.918030 486.048676,777.940125 491.024048,777.120667 
	C494.714813,776.512756 498.586151,777.001038 502.272583,777.001038 
	C503.398773,770.200989 500.961060,767.688477 492.792175,767.002319 
M492.097565,788.120422 
	C486.489380,790.829834 484.559021,794.258118 486.308380,798.401855 
	C487.620117,801.509033 492.621948,803.066833 496.705383,801.639893 
	C502.433197,799.638306 504.282227,794.801147 502.018250,786.950134 
	C499.033325,787.307129 495.974640,787.672913 492.097565,788.120422 
z"/>
<path fill="#01ADB5" opacity="1.000000" stroke="none" 
	d="
M754.023926,767.318481 
	C753.591492,763.951050 753.294250,760.851929 753.243652,757.457581 
	C763.739624,753.986389 774.143311,752.591248 784.745178,755.004150 
	C793.855713,757.077698 798.966064,763.747253 798.995117,773.200500 
	C799.018066,780.684875 798.771790,788.180054 799.118774,795.648376 
	C799.251587,798.507629 800.700073,801.305725 802.677185,803.833435 
	C802.406006,804.946106 802.202942,806.080627 801.852905,807.167908 
	C798.992737,816.053467 796.086243,817.005920 788.233337,811.567383 
	C787.018494,810.726074 786.012329,809.583374 784.634460,808.329651 
	C779.207153,812.993774 772.950684,814.845825 765.734192,815.172424 
	C755.958435,815.614868 747.893555,808.138611 746.922546,801.586121 
	C745.265198,790.402161 749.366333,782.678345 759.564209,778.975037 
	C760.177917,778.752136 760.761475,778.446045 762.094666,778.074402 
	C765.226440,777.598755 767.622559,777.227478 770.475586,776.903564 
	C774.503174,776.950989 778.073975,776.950989 781.578430,776.950989 
	C781.939087,770.366028 779.937683,767.552002 774.278748,767.181091 
	C770.556458,766.937073 766.761658,767.799927 762.614441,768.072937 
	C760.097534,768.653137 757.965515,769.327576 755.833496,770.001953 
	C755.275391,769.196899 754.717224,768.391907 754.023926,767.318481 
M779.927612,798.924561 
	C784.367004,795.977600 782.356567,791.777222 780.682617,789.018188 
	C778.484070,785.394470 774.376892,786.980408 770.298096,788.320129 
	C768.541260,790.321594 765.686096,792.151306 765.338623,794.373169 
	C764.996216,796.563110 766.594604,800.456604 768.403564,801.286011 
	C771.964539,802.918640 776.234436,802.833618 779.927612,798.924561 
z"/>
<path fill="#00ADB5" opacity="1.000000" stroke="none" 
	d="
M926.647522,754.007996 
	C935.740479,754.747620 940.400818,761.384705 940.870911,772.769226 
	C941.371765,784.899231 940.937988,797.066101 941.030396,809.216003 
	C941.051392,811.974243 940.073364,812.905029 937.279907,813.053711 
	C922.996033,813.813538 923.000366,813.888123 922.999756,799.793274 
	C922.999451,791.803833 923.055237,783.813782 922.977295,775.825073 
	C922.918823,769.839844 920.922119,766.925598 917.211975,767.041260 
	C912.754395,767.180176 908.069885,771.789612 908.033081,776.354736 
	C907.948547,786.840271 907.813293,797.331787 908.089539,807.810547 
	C908.201477,812.055420 906.738953,813.124390 902.679382,813.088806 
	C890.001343,812.977478 889.999695,813.133057 890.000122,800.693604 
	C890.000610,787.377869 890.119385,774.060364 889.927063,760.747437 
	C889.873169,757.017761 891.038696,755.654480 894.764709,755.944885 
	C898.225464,756.214600 901.723816,756.002441 905.188416,756.002441 
	C905.812317,757.649902 906.313049,758.972168 907.086792,761.015320 
	C912.714600,755.869934 918.868469,753.105652 926.647522,754.007996 
z"/>
<path fill="#00ADB5" opacity="1.000000" stroke="none" 
	d="
M1076.298706,765.402527 
	C1074.836182,767.607117 1073.560425,769.510925 1072.928711,770.453552 
	C1066.157349,769.213989 1060.166870,767.765869 1054.095093,767.219910 
	C1052.274414,767.056213 1050.227661,769.409424 1048.284424,770.609558 
	C1049.856934,772.104065 1051.178223,774.208374 1053.048950,774.979004 
	C1058.677124,777.297363 1064.562500,778.981750 1070.266479,781.128601 
	C1076.447510,783.455200 1079.752686,788.011658 1079.996826,794.687500 
	C1080.264648,802.007874 1077.004150,807.368042 1070.818726,811.036316 
	C1062.471924,815.986694 1053.315186,815.669250 1044.234131,814.511536 
	C1037.823730,813.694275 1031.810791,811.388550 1026.914917,806.258118 
	C1029.392334,803.227844 1031.601807,800.159424 1034.256470,797.542419 
	C1034.897583,796.910522 1037.321899,797.307251 1038.394165,798.025330 
	C1043.633179,801.533997 1049.466431,802.675232 1055.445679,801.778992 
	C1057.716431,801.438660 1059.650635,798.851746 1061.738159,797.288879 
	C1060.178833,795.563660 1058.935059,793.142090 1056.992798,792.262268 
	C1053.270630,790.576172 1049.150757,789.770142 1045.197998,788.591370 
	C1035.850098,785.803528 1029.799316,778.885437 1030.040405,771.268555 
	C1030.292847,763.292419 1037.980469,755.174927 1047.466675,754.229126 
	C1056.860474,753.292480 1066.327271,753.302368 1075.019531,758.406433 
	C1078.374878,760.376587 1079.533447,762.084473 1076.298706,765.402527 
z"/>
<path fill="#00ADB5" opacity="1.000000" stroke="none" 
	d="
M441.539856,755.890137 
	C443.858063,756.102478 445.718140,756.368774 447.727356,757.015869 
	C447.575439,759.785095 447.707764,762.351746 446.823944,764.500427 
	C446.214294,765.982544 444.198608,766.886230 441.975281,768.033997 
	C437.926941,769.001038 432.631592,769.175537 431.881897,771.110901 
	C429.344208,777.662109 427.794128,784.787781 429.835785,792.008240 
	C429.031982,802.220276 435.513306,803.668091 446.982849,799.283264 
	C447.277252,799.544128 447.717529,799.791138 447.955658,800.166443 
	C454.483582,810.454102 455.759155,811.119202 442.723480,814.419922 
	C437.717102,815.687500 432.044128,815.431885 426.861298,814.643982 
	C418.181915,813.324524 412.165344,805.343689 412.025360,796.128418 
	C411.916534,788.966736 412.005737,781.802124 411.998566,774.638855 
	C411.992004,768.061890 411.986908,768.075378 405.630249,767.990417 
	C403.997986,767.968567 402.367218,767.832764 400.381531,767.731262 
	C400.381531,763.868896 400.381531,760.315186 400.381531,756.866821 
	C400.854675,756.578735 401.112793,756.308472 401.407776,756.259155 
	C404.854736,755.683167 409.762024,756.301392 411.373535,754.281921 
	C413.202026,751.990479 412.081482,747.345764 412.256134,743.430603 
	C418.040710,742.674927 423.547577,741.955566 429.730133,741.147949 
	C429.730133,745.926453 429.730133,750.478149 429.730133,755.944214 
	C433.936584,755.944214 437.509155,755.944214 441.539856,755.890137 
z"/>
<path fill="#00ADB5" opacity="1.000000" stroke="none" 
	d="
M719.005859,776.016235 
	C719.001709,773.942505 719.001709,772.301514 719.001709,770.578674 
	C712.475952,771.881897 706.339050,779.963318 706.018982,787.226562 
	C705.945801,788.888123 705.970276,790.556152 706.007019,792.219849 
	C706.069458,795.042419 705.186584,798.604004 706.571472,800.457886 
	C707.735352,802.015991 711.546936,801.778748 714.213745,801.988403 
	C718.094543,802.293640 716.998657,805.188293 716.901672,807.202820 
	C716.799988,809.314148 718.490356,812.848694 714.288513,812.906921 
	C703.494812,813.056519 692.697632,812.956848 681.453979,812.956848 
	C681.453979,809.344299 681.453979,806.128296 681.453979,802.516357 
	C683.282837,802.225769 685.192383,801.922302 687.551392,801.547485 
	C687.551392,790.272461 687.551392,778.928223 687.551392,767.400879 
	C685.524231,767.145081 683.739624,766.919922 681.063354,766.582214 
	C681.063354,763.921082 680.810852,761.147949 681.200867,758.468323 
	C681.336609,757.535828 683.028809,756.188660 684.065063,756.137268 
	C689.046753,755.890381 694.062195,755.809082 699.031067,756.159851 
	C700.372864,756.254639 702.081116,757.819763 702.754395,759.148926 
	C703.741089,761.096802 703.946960,763.440247 704.308960,764.902039 
	C707.439697,762.150940 710.481689,759.220581 713.790100,756.630493 
	C718.865051,752.657288 724.847534,753.798462 730.531433,754.508484 
	C731.823792,754.669922 733.904419,757.276611 733.778076,758.578796 
	C733.098206,765.584167 731.836365,772.533142 730.617920,780.536255 
	C726.714966,777.782166 720.982605,784.251892 719.005859,776.016235 
z"/>
<path fill="#00ADB5" opacity="1.000000" stroke="none" 
	d="
M545.025635,745.000000 
	C537.185303,744.984375 535.005493,742.173462 537.210999,735.099243 
	C537.503601,734.160400 539.320190,733.127441 540.447815,733.108032 
	C549.762878,732.947205 559.084167,733.130920 568.398926,732.959351 
	C572.364563,732.886353 572.003479,735.368164 572.002441,737.906067 
	C571.994873,756.541992 571.989441,775.177917 572.005859,793.813843 
	C572.011902,800.625671 574.927368,802.795410 581.781738,801.163330 
	C586.683350,799.996155 592.253418,805.912292 590.709045,810.772705 
	C590.460999,811.553406 589.444397,812.285034 588.612183,812.654480 
	C581.530090,815.797729 573.979187,816.206360 566.789978,814.118103 
	C558.609680,811.741943 554.086853,804.193604 554.026428,794.926392 
	C553.936401,781.116394 554.056152,767.305054 553.981445,753.494934 
	C553.928772,743.774597 555.206055,745.153381 545.025635,745.000000 
z"/>
<path fill="#EAEDED" opacity="1.000000" stroke="none" 
	d="
M597.117188,284.373657 
	C597.069031,283.977600 597.400391,283.981018 597.565979,283.986877 
	C597.891052,284.776886 597.826050,285.714783 598.242493,286.323059 
	C616.619324,313.164642 635.038635,339.977142 653.829895,367.342133 
	C669.307434,338.877167 684.579651,310.789673 699.840576,282.352356 
	C715.955139,252.396210 732.080933,222.789948 748.229919,193.141052 
	C750.173645,194.130417 751.885376,195.001678 754.153992,196.156403 
	C737.774414,226.009766 721.524597,255.626602 705.161987,285.568268 
	C694.964539,304.203369 684.864624,322.505280 674.801208,340.827209 
	C669.130615,351.151306 663.520081,361.508331 657.690979,372.201813 
	C656.300415,370.726685 655.121765,369.476379 653.736084,368.006470 
	C652.748413,369.456970 651.869019,370.748505 650.556213,372.676453 
	C644.221252,363.482758 638.142090,354.690948 632.094666,345.877350 
	C620.810120,329.431091 609.727173,312.841461 598.144592,296.608215 
	C595.156616,292.420502 594.555969,288.965973 597.117188,284.373657 
z"/>
<path fill="#00ADB5" opacity="1.000000" stroke="none" 
	d="
M856.000000,772.003540 
	C856.002502,780.664185 856.099609,788.827454 855.958435,796.986572 
	C855.906128,800.009399 856.959778,801.195374 860.002625,801.034241 
	C863.442139,800.852234 866.898621,800.992310 870.662598,800.992310 
	C870.662598,805.224792 870.662598,808.776428 870.662598,812.663940 
	C854.444336,812.663940 838.563965,812.663940 822.342285,812.663940 
	C822.342285,808.781555 822.342285,805.230347 822.342285,800.983704 
	C826.599243,800.983704 830.549683,800.898010 834.494202,801.014282 
	C837.065796,801.090088 838.042236,800.055481 838.016846,797.490540 
	C837.931091,788.830139 837.931030,780.167847 838.016968,771.507446 
	C838.042480,768.940247 837.061462,767.910217 834.492188,767.985718 
	C830.547302,768.101624 826.596497,768.016235 822.339600,768.016235 
	C822.339600,763.770630 822.339600,760.219055 822.339600,756.060974 
	C832.945984,756.060974 843.222351,755.979248 853.491699,756.210449 
	C854.346680,756.229736 855.775879,758.313416 855.869629,759.520935 
	C856.178040,763.494934 855.994568,767.507019 856.000000,772.003540 
z"/>
<path fill="#00ADB5" opacity="1.000000" stroke="none" 
	d="
M228.000000,769.013550 
	C228.002563,778.672546 228.092941,787.834961 227.958038,796.994019 
	C227.913376,800.025208 228.976059,801.193298 232.009918,801.033936 
	C235.449234,800.853271 238.905365,800.992310 242.659805,800.992310 
	C242.659805,805.230347 242.659805,808.781982 242.659805,812.663452 
	C226.438629,812.663452 210.558121,812.663452 194.339386,812.663452 
	C194.339386,808.775696 194.339386,805.224426 194.339386,800.983459 
	C198.606033,800.983459 202.557281,800.896729 206.502411,801.014404 
	C209.083160,801.091309 210.041565,800.038086 210.016571,797.482239 
	C209.931854,788.821716 209.930023,780.159302 210.017029,771.498840 
	C210.042908,768.921997 209.043259,767.911621 206.483582,767.985901 
	C202.539597,768.100403 198.589828,768.015991 194.342850,768.015991 
	C194.342850,763.764099 194.342850,760.212524 194.342850,756.061707 
	C204.953430,756.061707 215.230148,755.992737 225.501770,756.189880 
	C226.342590,756.206055 227.747849,757.972778 227.858063,759.033447 
	C228.183502,762.165283 227.990295,765.351013 228.000000,769.013550 
z"/>
<path fill="#00ADB5" opacity="1.000000" stroke="none" 
	d="
M367.106537,760.571350 
	C366.867249,766.222412 366.572906,771.448547 366.638947,776.923889 
	C367.001251,783.661377 367.120941,790.152649 366.954193,796.636536 
	C366.873810,799.762085 367.759094,801.368958 371.144470,801.022766 
	C372.790649,800.854492 374.489349,801.167358 376.128357,800.967651 
	C380.494751,800.435608 382.220062,801.828369 382.174347,806.625610 
	C382.128723,811.415283 381.224213,813.440369 375.877502,813.131165 
	C367.588379,812.652039 359.249207,813.037842 350.031799,813.042969 
	C347.088501,813.074585 345.044647,813.120239 343.000793,813.165955 
	C339.888519,813.026978 336.776276,812.888000 333.891785,812.759155 
	C333.525177,812.082153 333.260956,811.809021 333.234680,811.514648 
	C332.300201,801.043518 332.309998,800.807068 342.921295,801.107727 
	C347.633209,801.241272 349.393158,800.042114 349.107910,795.083618 
	C348.688690,787.795532 348.765717,780.455139 349.087555,773.157166 
	C349.276367,768.876709 347.685394,767.472168 343.658966,767.967834 
	C342.022003,768.169312 340.310242,767.800171 338.683014,768.037292 
	C333.989319,768.721375 332.979309,766.627686 332.826416,762.202576 
	C332.648560,757.055115 334.295532,755.628235 339.287781,755.891724 
	C347.076904,756.302856 354.905762,756.111694 362.713196,755.951416 
	C365.853973,755.886963 367.463226,756.820679 367.106537,760.571350 
z"/>
<path fill="#03AEB6" opacity="1.000000" stroke="none" 
	d="
M614.543030,232.833405 
	C610.675903,242.361221 606.569397,251.747803 602.338806,261.078094 
	C599.607971,267.100708 596.695190,273.040894 593.576416,279.625214 
	C585.183350,267.285889 577.158691,255.488205 569.149658,243.344604 
	C577.879944,238.052460 586.709167,233.294098 595.259155,228.077896 
	C599.313721,225.604218 602.774048,225.285843 606.660217,228.076767 
	C609.054749,229.796387 611.711853,231.150223 614.543030,232.833405 
z"/>
<path fill="#03AEB6" opacity="1.000000" stroke="none" 
	d="
M717.180847,579.893860 
	C720.214111,573.157837 723.498169,566.369385 727.048584,559.723145 
	C734.068787,546.581299 741.232605,533.516174 748.354248,520.428772 
	C748.723328,519.750366 749.252991,519.159302 750.277710,517.736206 
	C757.407532,528.546509 764.196533,538.840088 770.994080,549.484009 
	C760.803101,555.583496 750.606750,561.338196 740.403259,567.080200 
	C732.791016,571.363892 725.169495,575.631165 717.180847,579.893860 
z"/>
<path fill="#00ADB5" opacity="1.000000" stroke="none" 
	d="
M976.120605,740.717102 
	C976.060974,738.128967 976.060974,735.995789 976.060974,733.432434 
	C981.793457,733.432434 987.140869,733.432434 992.612976,733.432434 
	C992.061035,742.217285 991.413147,750.734802 991.054626,759.264465 
	C990.938293,762.031250 990.037842,763.166870 987.255127,763.022278 
	C984.465576,762.877380 981.662720,762.990479 978.155640,762.990479 
	C977.751038,757.575256 977.408447,752.543762 976.984070,747.519226 
	C976.804688,745.395996 976.453369,743.287354 976.120605,740.717102 
z"/>
<path fill="#EEEEEE" opacity="1.000000" stroke="none" 
	d="
M342.988525,813.525879 
	C345.044647,813.120239 347.088501,813.074585 349.565918,813.097534 
	C346.324249,821.484985 342.739227,829.845215 338.950867,838.112244 
	C334.198578,848.482666 329.186310,858.734314 324.473022,869.122070 
	C322.213654,874.101562 319.806702,871.381714 316.764038,869.528259 
	C325.537964,850.903198 334.257111,832.394470 342.988525,813.525879 
z"/>
<path fill="#00ADB5" opacity="1.000000" stroke="none" 
	d="
M362.419006,743.766846 
	C354.163391,746.739502 347.165802,743.952454 346.103455,737.480713 
	C345.357635,732.937134 346.839355,729.082520 351.075134,727.089722 
	C355.120758,725.186584 359.668488,724.841675 363.221008,727.977600 
	C366.466400,730.842468 367.783569,734.838623 365.816284,739.143311 
	C365.081360,740.751465 363.804016,742.111694 362.419006,743.766846 
z"/>
<path fill="#00ADB5" opacity="1.000000" stroke="none" 
	d="
M226.706055,731.474121 
	C228.703995,736.411743 227.611404,741.107117 223.770370,743.138428 
	C220.596603,744.816833 215.735870,744.755188 212.105988,743.738647 
	C207.965622,742.579102 206.430542,738.407715 207.066040,734.009277 
	C207.674637,729.796936 210.324860,727.114746 214.338303,726.148376 
	C220.126373,724.754700 223.635895,726.333008 226.706055,731.474121 
z"/>
<path fill="#00ADB5" opacity="1.000000" stroke="none" 
	d="
M836.243286,740.440918 
	C833.759766,733.636414 835.976624,728.030640 841.523254,726.279663 
	C848.223450,724.164490 854.042236,726.883240 855.055359,733.685608 
	C855.503662,736.696228 853.759216,740.596313 851.837891,743.240845 
	C849.856384,745.967896 842.295471,745.691406 839.267700,743.566528 
	C838.197876,742.815674 837.365784,741.726135 836.243286,740.440918 
z"/>
<path fill="#EEEEEE" opacity="1.000000" stroke="none" 
	d="
M608.523193,765.144897 
	C608.879944,769.026855 608.925537,773.053955 608.902466,777.540283 
	C605.743530,783.477905 602.653259,788.956421 599.410767,794.704590 
	C597.652649,793.752625 595.763611,792.729797 593.593506,791.554810 
	C598.617493,782.528320 603.414734,773.909241 608.523193,765.144897 
z"/>
<path fill="#E9EDED" opacity="1.000000" stroke="none" 
	d="
M429.896057,791.640015 
	C427.794128,784.787781 429.344208,777.662109 431.881897,771.110901 
	C432.631592,769.175537 437.926941,769.001038 441.572083,768.089478 
	C437.988739,775.863403 433.972534,783.567566 429.896057,791.640015 
z"/>
<path fill="#EEEEEE" opacity="1.000000" stroke="none" 
	d="
M770.018738,776.856140 
	C767.622559,777.227478 765.226440,777.598755 762.415161,777.901489 
	C760.042847,775.427002 758.085571,773.021179 755.980957,770.308594 
	C757.965515,769.327576 760.097534,768.653137 762.747681,768.371704 
	C765.516785,771.461853 767.767761,774.158997 770.018738,776.856140 
z"/>
<path fill="#ECEEEE" opacity="1.000000" stroke="none" 
	d="
M646.173706,636.312744 
	C647.067749,636.814758 647.973999,637.630188 648.917786,638.782898 
	C648.032227,638.288818 647.109070,637.457520 646.173706,636.312744 
z"/>
<path fill="#ECEEEE" opacity="1.000000" stroke="none" 
	d="
M655.173706,647.312744 
	C656.067749,647.814758 656.973999,648.630188 657.917786,649.782898 
	C657.032166,649.288879 656.109070,648.457520 655.173706,647.312744 
z"/>
<path fill="#03AEB6" opacity="1.000000" stroke="none" 
	d="
M716.330994,580.915649 
	C716.148682,580.636292 716.190552,580.226685 716.560791,579.828064 
	C716.777893,580.154480 716.666565,580.469971 716.330994,580.915649 
z"/>
<path fill="#47704C" opacity="1.000000" stroke="none" 
	d="
M668.378174,652.808289 
	C666.072571,650.456238 664.103210,648.035767 661.973877,644.994446 
	C660.890869,643.542358 659.967773,642.711121 659.044739,641.879883 
	C657.074463,639.458313 655.104126,637.036743 652.973877,633.994385 
	C651.890869,632.542358 650.967773,631.711121 650.044739,630.879883 
	C648.118408,628.506592 646.192017,626.133362 644.133057,623.462524 
	C662.213989,612.492126 680.421997,601.810120 698.651245,591.164490 
	C700.068726,590.336731 701.634827,589.763672 703.481812,589.036011 
	C694.411255,606.314514 685.011230,623.640381 675.554871,640.935425 
	C673.373779,644.924377 670.999695,648.807800 668.378174,652.808289 
z"/>
<path fill="#47704C" opacity="1.000000" stroke="none" 
	d="
M667.792603,657.355713 
	C667.838440,656.999390 667.983521,656.570068 668.014038,656.345520 
	C672.987915,657.059021 672.571960,659.647888 668.765198,663.186707 
	C668.425720,661.361816 668.086243,659.536926 667.792603,657.355713 
z"/>
<path fill="#47704C" opacity="1.000000" stroke="none" 
	d="
M288.230225,765.917480 
	C293.623444,767.789978 295.722015,773.376770 293.703827,779.520691 
	C292.631531,782.785034 288.145966,785.116699 284.564362,784.271545 
	C278.705719,782.889038 276.704590,778.950500 278.082092,771.513306 
	C278.863342,767.295288 282.530579,765.173523 288.230225,765.917480 
z"/>
<path fill="#47704C" opacity="1.000000" stroke="none" 
	d="
M627.000000,787.106262 
	C627.000000,784.672119 627.000000,782.719238 627.000000,780.914001 
	C635.637390,778.769897 642.547791,780.781921 644.923157,785.823303 
	C647.920898,792.185730 644.853821,798.405273 638.010071,799.841736 
	C628.814941,801.771606 627.000488,800.326843 627.000000,791.074890 
	C626.999939,789.912415 627.000000,788.750000 627.000000,787.106262 
z"/>
<path fill="#47704C" opacity="1.000000" stroke="none" 
	d="
M642.913574,757.465088 
	C644.570312,765.039612 638.468201,768.952148 627.410645,767.471313 
	C627.410645,762.340942 627.410645,757.142639 627.415588,751.940674 
	C634.148315,749.787781 640.216736,751.799561 642.913574,757.465088 
z"/>
<path fill="#47704C" opacity="1.000000" stroke="none" 
	d="
M139.001221,758.135864 
	C139.001251,755.689087 139.001251,753.722595 139.001251,751.823730 
	C151.147446,750.399292 156.247055,755.641785 157.639359,766.237122 
	C158.595642,773.514404 157.978165,781.216858 156.745346,788.506226 
	C155.310867,796.988159 148.256699,800.955078 139.001175,799.302246 
	C139.001175,785.835205 139.001175,772.225708 139.001221,758.135864 
z"/>
<path fill="#ECEEEE" opacity="1.000000" stroke="none" 
	d="
M659.082275,642.217041 
	C659.967773,642.711121 660.890869,643.542358 661.826172,644.687012 
	C660.932251,644.185059 660.026062,643.369690 659.082275,642.217041 
z"/>
<path fill="#ECEEEE" opacity="1.000000" stroke="none" 
	d="
M650.082275,631.217041 
	C650.967773,631.711121 651.890869,632.542358 652.826172,633.687012 
	C651.932251,633.185059 651.026062,632.369690 650.082275,631.217041 
z"/>
<path fill="#47704C" opacity="1.000000" stroke="none" 
	d="
M492.506775,788.079590 
	C495.974640,787.672913 499.033325,787.307129 502.018250,786.950134 
	C504.282227,794.801147 502.433197,799.638306 496.705383,801.639893 
	C492.621948,803.066833 487.620117,801.509033 486.308380,798.401855 
	C484.559021,794.258118 486.489380,790.829834 492.506775,788.079590 
z"/>
<path fill="#47704C" opacity="1.000000" stroke="none" 
	d="
M770.475586,776.903564 
	C767.767761,774.158997 765.516785,771.461853 763.132568,768.465942 
	C766.761658,767.799927 770.556458,766.937073 774.278748,767.181091 
	C779.937683,767.552002 781.939087,770.366028 781.578430,776.950989 
	C778.073975,776.950989 774.503174,776.950989 770.475586,776.903564 
z"/>
<path fill="#47704C" opacity="1.000000" stroke="none" 
	d="
M779.165161,799.005737 
	C776.234436,802.833618 771.964539,802.918640 768.403564,801.286011 
	C766.594604,800.456604 764.996216,796.563110 765.338623,794.373169 
	C765.686096,792.151306 768.541260,790.321594 770.758667,788.520874 
	C773.867920,792.149658 776.516541,795.577698 779.165161,799.005737 
z"/>
<path fill="#EBEDED" opacity="1.000000" stroke="none" 
	d="
M779.546387,798.965149 
	C776.516541,795.577698 773.867920,792.149658 771.085327,788.414307 
	C774.376892,786.980408 778.484070,785.394470 780.682617,789.018188 
	C782.356567,791.777222 784.367004,795.977600 779.546387,798.965149 
z"/>
</svg>