<svg version="1.1" id="Layer_1" xmlns="http://www.w3.org/2000/svg" xmlns:xlink="http://www.w3.org/1999/xlink" x="0px" y="0px"
	 width="100%" viewBox="0 0 1200 1200" enable-background="new 0 0 1200 1200" xml:space="preserve">
<path fill="#EEEEEE" opacity="1.000000" stroke="none" 
	d="
M826.000000,1201.000000 
	C550.666687,1201.000000 275.833344,1201.000000 1.000000,1201.000000 
	C1.000000,801.000000 1.000000,401.000000 1.000000,1.000000 
	C401.000000,1.000000 801.000000,1.000000 1201.000000,1.000000 
	C1201.000000,401.000000 1201.000000,801.000000 1201.000000,1201.000000 
	C1076.166626,1201.000000 951.333313,1201.000000 826.000000,1201.000000 
M654.085144,377.431427 
	C654.325256,377.287628 654.565430,377.143829 655.310913,376.556458 
	C656.017029,375.457245 656.723145,374.358032 657.626709,372.951355 
	C688.232239,417.557129 718.661438,461.905945 749.358887,506.645752 
	C760.202881,486.791290 770.735413,467.571259 781.156494,448.290985 
	C781.896057,446.922699 782.077026,445.111908 782.079224,443.506256 
	C782.129089,407.203766 782.162781,370.900940 781.984314,334.599243 
	C781.975403,332.785645 780.475647,330.237396 778.908875,329.289948 
	C765.411133,321.127716 751.737244,313.256866 738.117981,305.295532 
	C727.105713,298.858154 716.096313,292.415833 704.764893,285.788116 
	C688.953613,314.778748 673.348816,343.390961 657.632568,372.207336 
	C656.116028,370.583954 654.962585,369.349335 654.221008,368.555542 
	C652.576599,369.965118 651.256470,371.096710 649.741455,371.559418 
	C631.504761,344.985901 613.268066,318.412415 594.576782,291.176422 
	C567.336548,349.275970 540.461609,406.596375 513.390198,464.335968 
	C511.733978,462.515656 510.634918,461.307709 509.405121,459.956055 
	C508.435730,461.713654 507.560242,463.300995 506.494843,465.232666 
	C477.769287,430.219971 449.214691,395.415680 419.881470,359.662354 
	C419.881470,362.935547 419.881470,364.762573 419.881470,366.589600 
	C419.881470,420.755035 420.227264,474.924652 419.576294,529.082275 
	C419.452942,539.346436 422.274445,545.047180 431.420776,549.328430 
	C441.099823,553.858948 450.064087,559.916626 459.705475,565.519348 
	C475.414948,532.011597 490.874481,499.037079 506.536499,465.630554 
	C508.247681,467.473602 509.376190,468.689087 510.567566,469.972321 
	C511.687988,468.067963 512.565491,466.576569 513.588989,464.836914 
	C531.104492,486.163269 548.360291,507.173431 565.945740,528.584961 
	C566.785583,527.130859 567.284241,526.309998 567.742859,525.467346 
	C582.917053,497.587219 598.112793,469.718750 613.250366,441.818756 
	C625.525146,419.195312 637.729309,396.533569 650.642761,373.786102 
	C651.719482,374.873291 652.796265,375.960480 654.085144,377.431427 
M597.651550,285.886841 
	C606.373169,298.452240 615.129822,310.993500 623.807251,323.589325 
	C633.691284,337.936523 643.504578,352.332397 653.644897,367.139648 
	C654.694214,365.440247 655.527588,364.225006 656.227478,362.937256 
	C669.953735,337.683197 683.579590,312.373779 697.478088,287.214966 
	C699.362915,283.803131 699.300171,282.381561 695.775208,280.380188 
	C680.895874,271.932037 666.215881,263.133636 651.432556,254.515381 
	C641.166687,248.530670 630.851318,242.630814 620.242920,236.511230 
	C617.644897,241.983353 615.341370,246.943268 612.945984,251.858429 
	C607.654358,262.716370 602.316528,273.551819 596.544495,283.883484 
	C595.627319,282.683380 594.710144,281.483307 593.694641,280.154510 
	C592.478149,282.123169 591.592773,283.556000 590.557922,285.230804 
	C581.487793,272.054688 572.767578,259.386810 564.088135,246.778122 
	C516.692688,274.421509 469.897644,301.706482 423.129852,329.037994 
	C421.922241,329.743774 420.068573,331.001831 420.110657,331.930054 
	C420.502533,340.573120 418.047455,349.158600 425.065582,357.296143 
	C445.807434,381.346405 465.597107,406.217804 485.764252,430.763885 
	C493.547089,440.236511 501.343475,449.697998 509.370148,459.451874 
	C536.596924,401.375610 563.535889,343.913330 590.690308,285.991333 
	C592.360657,287.962372 593.449768,289.247620 594.747681,290.779144 
	C595.613770,288.798553 596.276184,287.283997 597.651550,285.886841 
M567.477600,537.731262 
	C568.218750,536.507507 568.959900,535.283752 569.989624,533.583496 
	C594.702515,563.688477 619.110779,593.422424 643.536194,623.177185 
	C663.636047,611.434021 683.305420,599.995300 702.888184,588.409973 
	C704.633423,587.377502 706.204285,585.608643 707.197937,583.816833 
	C716.221680,567.544006 725.093262,551.186829 734.021851,534.861267 
	C738.018555,527.553406 742.043518,520.261047 746.169556,512.754578 
	C747.738647,514.467896 748.788757,515.614502 749.929382,516.859924 
	C751.195801,515.266907 752.170654,514.040710 753.335205,512.575928 
	C760.287537,522.640808 767.294495,532.157837 773.558960,542.140869 
	C776.338623,546.570496 778.631409,544.740784 780.991028,542.732361 
	C781.950256,541.915894 782.070740,539.769226 782.074585,538.226562 
	C782.136780,513.399231 782.118469,488.571625 782.118408,463.744080 
	C782.118408,462.689301 782.118408,461.634521 782.118408,460.579742 
	C781.808350,460.517426 781.498291,460.455109 781.188232,460.392792 
	C771.924622,477.321716 762.660950,494.250671 753.122559,511.681854 
	C751.624084,509.790405 750.567322,508.456482 749.382507,506.960846 
	C748.358032,508.642822 747.431885,510.163452 746.200439,512.185303 
	C715.576172,467.555298 685.148804,423.212219 654.348511,378.325714 
	C626.046814,430.276276 598.100159,481.575165 569.969360,533.212097 
	C568.479248,531.636963 567.394287,530.490051 566.077942,529.098511 
	C564.922668,530.679260 563.894226,532.086304 562.708923,533.708130 
	C545.330994,512.538879 528.174255,491.639069 510.644928,470.285431 
	C495.153320,503.372009 479.967072,535.806458 464.662140,568.494263 
	C484.843964,580.232239 504.751617,591.810730 525.080688,603.634338 
	C537.792297,580.347900 550.235413,557.553162 563.104919,533.977356 
	C564.531311,535.719666 565.460510,536.854614 566.453186,538.770264 
	C562.779297,545.826660 559.192749,552.930237 555.413574,559.929871 
	C547.059937,575.401855 538.609314,590.821594 530.240845,606.184509 
	C530.653870,606.641113 530.831116,606.960388 531.102234,607.119324 
	C552.744751,619.799133 574.339844,632.562378 596.125000,644.992554 
	C598.405090,646.293396 602.449158,646.810364 604.588928,645.664185 
	C615.951172,639.577393 626.966797,632.843445 638.274475,626.233032 
	C637.624390,625.221558 637.329102,624.643921 636.927185,624.153748 
	C620.372253,603.965393 603.771545,583.814392 587.261841,563.589172 
	C580.351868,555.124084 573.632568,546.503357 567.477600,537.731262 
M663.427979,784.343201 
	C661.149353,777.702820 655.301514,775.655579 649.088440,773.404358 
	C650.768188,772.467590 652.212585,771.731201 653.587952,770.882874 
	C658.854248,767.634460 661.397949,762.957214 661.199829,756.708130 
	C660.924072,748.005127 656.067810,741.565796 646.177551,740.239929 
	C634.073059,738.617188 621.758240,738.563538 609.295105,737.817017 
	C609.295105,763.541504 609.295105,788.089355 609.295105,812.150146 
	C621.037964,812.150146 632.568481,813.065674 643.893799,811.932007 
	C660.217102,810.297974 666.416626,801.121033 663.427979,784.343201 
M314.912933,823.207520 
	C316.903198,816.195374 315.386597,809.779724 309.166138,806.164062 
	C304.638000,803.532227 298.977081,802.601624 293.690582,801.606567 
	C289.985474,800.909180 286.018311,801.689331 282.254303,801.176880 
	C280.792480,800.977905 279.567474,799.039551 278.234619,797.893494 
	C279.682434,797.219421 281.068481,796.212280 282.589020,795.930359 
	C288.395935,794.853516 294.718445,795.115051 299.987488,792.862671 
	C313.297180,787.173157 314.598724,771.574280 303.047791,763.003540 
	C302.637939,762.699341 302.399200,762.164612 302.017059,761.652039 
	C306.913361,760.935547 311.401367,760.278809 316.408905,759.546021 
	C314.962830,754.832031 313.775299,750.960876 312.451569,746.645752 
	C302.902710,752.352600 292.952972,753.848572 282.479645,754.179626 
	C268.051636,754.635681 259.326508,764.137573 259.980896,777.296448 
	C260.308563,783.885132 264.232483,788.160034 269.363525,791.797607 
	C268.396606,792.916321 267.621246,793.743469 266.923615,794.631592 
	C261.046509,802.112915 263.528961,810.332214 272.627258,812.895325 
	C275.465729,813.695007 278.531830,813.807922 281.508087,813.966858 
	C285.328339,814.170898 289.259064,813.617615 292.953644,814.346375 
	C294.996704,814.749451 297.242615,816.791992 298.257751,818.701294 
	C298.832733,819.782715 297.585541,822.631958 296.327759,823.749390 
	C291.086151,828.406311 276.344879,826.071228 272.407867,820.309082 
	C271.958893,819.652039 270.888336,819.082947 270.088348,819.058899 
	C265.960297,818.934509 261.826447,819.001221 257.710632,819.001221 
	C257.606171,827.868774 260.787750,832.698914 268.739410,834.950562 
	C279.525543,838.004944 290.492065,837.993408 301.258148,834.921326 
	C307.121429,833.248230 312.277893,830.137146 314.912933,823.207520 
M163.901108,744.495911 
	C150.278976,736.577942 135.464035,738.644348 120.754089,738.660889 
	C120.754089,763.755493 120.754089,788.161926 120.754089,812.505798 
	C130.294754,812.505798 139.673111,813.402161 148.812363,812.305664 
	C164.348679,810.441528 173.364075,802.154907 175.592194,787.187866 
	C176.860809,778.666138 176.025574,769.695557 175.131317,761.031006 
	C174.426956,754.206360 170.355927,748.761230 163.901108,744.495911 
M760.669678,778.979431 
	C753.088013,781.686707 747.609253,786.254272 746.903259,794.874695 
	C746.297546,802.270203 748.534485,808.614075 755.296143,812.206848 
	C766.005127,817.896851 775.811035,814.926514 783.955261,808.620789 
	C789.066223,811.098633 793.623718,813.308167 799.148865,815.986816 
	C800.157654,810.715393 802.622498,805.944702 801.174927,803.396362 
	C799.261292,800.027344 798.907898,797.005859 798.852844,793.625610 
	C798.744385,786.964417 798.981262,780.295288 798.778320,773.638550 
	C798.531189,765.531921 795.383362,759.012817 787.259094,756.146790 
	C775.156128,751.877258 763.440308,754.349182 751.457458,758.388184 
	C752.813354,762.237427 754.007874,765.628479 754.977295,768.380493 
	C761.849243,767.837036 768.099854,766.807373 774.312073,767.002197 
	C780.496887,767.196045 782.512207,770.433289 781.731445,776.217346 
	C774.899719,777.102417 768.178650,777.973083 760.669678,778.979431 
M493.495270,814.167969 
	C497.678558,812.332764 501.861816,810.497498 505.558014,808.875977 
	C509.957550,811.041565 514.519043,813.286926 519.560913,815.768738 
	C520.937195,811.580933 522.001221,808.644470 522.823059,805.641846 
	C523.042847,804.838684 522.602966,803.808350 522.327942,802.925293 
	C521.529968,800.363098 520.057739,797.850952 519.936951,795.268311 
	C519.602600,788.122742 519.917969,780.949707 519.795776,773.790588 
	C519.639465,764.634460 515.446838,758.504333 507.462738,755.877197 
	C495.628021,751.983154 484.238708,754.496826 472.507385,758.302429 
	C473.801392,762.123718 474.951141,765.519043 475.936218,768.427979 
	C482.700470,767.865662 488.938599,766.810242 495.142853,766.981506 
	C501.410095,767.154541 503.345032,770.151794 502.794739,777.039490 
	C499.368744,777.039490 495.874512,776.786926 492.433990,777.108826 
	C488.812073,777.447693 485.166870,778.066528 481.663788,779.038574 
	C473.848328,781.207092 468.597382,787.229004 467.929352,794.392761 
	C467.202118,802.191406 469.670166,808.541199 476.695007,812.543396 
	C481.705383,815.397949 487.132904,815.629456 493.495270,814.167969 
M940.119995,805.437683 
	C940.088989,793.446045 940.257935,781.449585 939.966370,769.464294 
	C939.714844,759.126038 932.893799,752.923218 922.706299,754.203918 
	C918.470398,754.736511 914.459534,757.231995 910.411926,758.986267 
	C909.156128,759.530579 908.116089,760.572876 907.545654,760.980774 
	C905.851074,759.035889 904.696045,756.447327 903.179993,756.215027 
	C899.170959,755.600708 895.005554,756.006836 890.865845,756.006836 
	C890.865845,775.313171 890.865845,794.024597 890.865845,812.809692 
	C896.534119,812.809692 901.820984,812.809692 907.674316,812.809692 
	C907.674316,811.004761 907.674927,809.387512 907.674194,807.770203 
	C907.669617,797.683167 907.882019,787.589294 907.560730,777.512329 
	C907.418030,773.033875 909.403259,770.281372 912.787720,768.124573 
	C918.297852,764.613159 922.724365,766.847168 922.948120,773.373535 
	C923.153381,779.362854 922.997009,785.364563 922.998047,791.360840 
	C922.999268,798.462219 922.998352,805.563538 922.998352,812.672974 
	C929.010254,812.672974 934.409302,812.672974 940.120056,812.672974 
	C940.120056,810.371094 940.120056,808.395508 940.119995,805.437683 
M1072.627319,770.242371 
	C1074.535767,767.345642 1076.444214,764.448914 1078.324219,761.595398 
	C1070.282104,754.170166 1054.498535,751.741455 1042.843872,755.966553 
	C1035.522583,758.620667 1031.042725,764.218140 1030.878906,770.916687 
	C1030.684814,778.847046 1033.755859,783.550720 1041.901611,786.803040 
	C1046.666138,788.705322 1051.729248,789.848755 1056.547119,791.632812 
	C1059.295532,792.650635 1063.088257,794.067200 1061.643555,797.687439 
	C1060.805786,799.786499 1057.154419,802.228943 1054.971191,802.050232 
	C1048.380859,801.510803 1041.889038,799.764771 1034.171997,798.257324 
	C1032.708130,799.975891 1030.071899,803.070679 1027.446533,806.152832 
	C1038.326050,815.777771 1058.034546,817.912109 1070.066528,811.184204 
	C1076.425537,807.628540 1080.022095,802.373108 1079.745361,795.007568 
	C1079.460327,787.418701 1074.952881,782.856140 1068.101685,780.423645 
	C1062.943848,778.592468 1057.587036,777.265930 1052.566772,775.131836 
	C1050.710205,774.342529 1049.561523,771.888062 1048.090088,770.192993 
	C1049.885986,769.049072 1051.832153,766.753662 1053.451294,766.964966 
	C1059.714478,767.782349 1065.873535,769.398926 1072.627319,770.242371 
M554.181519,781.497314 
	C554.455139,787.642395 554.315735,793.842224 555.120911,799.916870 
	C555.894775,805.755554 558.891174,810.603882 564.656494,813.036926 
	C573.572754,816.799744 582.126892,815.037842 590.917603,811.411438 
	C590.264099,809.623413 589.530518,808.283691 589.298523,806.862122 
	C588.461304,801.731323 586.235779,800.253967 580.798523,801.673889 
	C574.306641,803.369385 571.537170,800.366455 571.527710,793.203247 
	C571.503662,775.038879 571.519653,756.874451 571.519653,738.710083 
	C571.519653,736.919312 571.519714,735.128540 571.519714,733.182373 
	C559.971191,733.182373 549.017395,733.182373 537.772095,733.182373 
	C537.772095,737.116272 537.772095,740.863770 537.772095,745.107178 
	C543.295288,745.107178 548.549500,745.107178 554.181641,745.107178 
	C554.181641,757.231812 554.181641,768.865051 554.181519,781.497314 
M706.111938,765.764282 
	C705.416077,765.707153 704.182007,765.815125 704.106079,765.567810 
	C703.150085,762.451416 702.361145,759.283630 701.575134,756.302063 
	C694.492859,756.302063 687.911499,756.302063 681.348938,756.302063 
	C681.348938,760.005005 681.348938,763.394531 681.348938,766.805420 
	C683.806580,766.976501 685.915771,767.123291 688.102295,767.275513 
	C688.102295,778.931091 688.102295,790.288452 688.102295,802.059998 
	C685.638367,802.059998 683.544495,802.059998 681.294006,802.059998 
	C681.294006,805.869629 681.294006,809.254639 681.294006,812.665771 
	C693.307190,812.665771 705.020752,812.665771 716.612793,812.665771 
	C716.612793,808.933472 716.612793,805.546814 716.612793,801.689087 
	C712.814819,801.689087 709.407715,801.689087 706.050232,801.689087 
	C704.788208,782.072937 709.650635,770.794434 719.660828,770.070984 
	C719.820435,773.295898 719.980164,776.523254 720.138733,779.726807 
	C723.854309,779.726807 727.112976,779.726807 730.499695,779.726807 
	C731.287781,774.409424 732.082458,769.345642 732.772644,764.267700 
	C733.128296,761.651611 733.297852,759.010254 733.545288,756.444580 
	C723.637268,750.872192 712.779968,754.397827 706.111938,765.764282 
M412.179108,778.521851 
	C412.179565,783.847229 412.050232,789.176575 412.212708,794.497009 
	C412.424286,801.424866 414.310638,807.714050 420.558868,811.681396 
	C428.922577,816.992126 444.653778,815.959656 452.828064,809.561707 
	C451.066681,806.315674 449.282410,803.027527 447.753937,800.210754 
	C443.523529,800.860474 439.966125,801.682373 436.373993,801.883484 
	C432.526367,802.098816 429.710724,799.969116 429.593018,796.083069 
	C429.313324,786.848328 429.502960,777.599365 429.502960,768.006653 
	C435.060211,768.006653 440.343231,768.006653 445.939056,768.006653 
	C446.538086,763.987061 447.092346,760.268127 447.754395,755.825500 
	C441.368683,755.825500 435.322906,755.825500 428.949890,755.825500 
	C428.949890,750.873169 428.949890,746.598877 428.949890,741.511475 
	C423.308746,742.370422 417.680145,742.221436 413.198669,744.415466 
	C411.458496,745.267456 412.312439,751.412415 411.968475,755.144714 
	C411.956635,755.273499 411.770569,755.386169 411.147491,756.100281 
	C407.963043,756.100281 404.233521,756.100281 400.429169,756.100281 
	C400.429169,760.286133 400.429169,763.874573 400.429169,768.045410 
	C404.381256,768.045410 408.108276,768.045410 412.179199,768.045410 
	C412.179199,771.596497 412.179199,774.564453 412.179108,778.521851 
M227.513763,775.500610 
	C227.513763,769.081848 227.513763,762.663025 227.513763,756.375732 
	C216.192917,756.375732 205.630157,756.375732 195.152390,756.375732 
	C195.152390,760.360229 195.152390,763.961792 195.152390,768.123047 
	C200.309341,768.123047 205.209122,768.123047 209.998383,768.123047 
	C209.998383,779.349670 209.998383,790.001160 209.998383,801.226440 
	C204.525833,801.226440 199.477051,801.226440 194.487793,801.226440 
	C194.487793,805.403381 194.487793,808.993042 194.487793,812.638916 
	C210.492798,812.638916 226.192596,812.638916 241.864334,812.638916 
	C241.864334,808.672058 241.864334,805.070129 241.864334,800.935242 
	C237.048401,800.935242 232.473618,800.935242 227.513184,800.935242 
	C227.513184,792.432434 227.513184,784.466370 227.513763,775.500610 
M344.423248,800.998230 
	C340.816528,800.998230 337.209839,800.998230 333.567200,800.998230 
	C333.567200,805.333435 333.567200,809.044922 333.567200,812.720886 
	C349.535431,812.720886 365.120148,812.720886 380.769379,812.720886 
	C380.769379,808.722656 380.769379,805.011658 380.769379,800.744873 
	C375.875153,800.744873 371.325043,800.744873 366.371552,800.744873 
	C366.371552,785.580811 366.371552,770.976807 366.371552,756.301941 
	C355.376740,756.301941 344.809784,756.301941 334.256775,756.301941 
	C334.256775,760.323792 334.256775,764.034912 334.256775,768.151245 
	C339.393433,768.151245 344.160156,768.151245 349.347382,768.151245 
	C349.347382,778.449097 349.286591,788.335632 349.382568,798.220642 
	C349.413361,801.390564 347.383545,801.031006 344.423248,800.998230 
M862.435791,813.001648 
	C864.875793,813.001648 867.315796,813.001648 869.747498,813.001648 
	C869.747498,808.682861 869.747498,804.971680 869.747498,800.882263 
	C864.939636,800.882263 860.496094,800.882263 855.492737,800.882263 
	C855.492737,785.778442 855.492737,771.050232 855.492737,756.319153 
	C844.343994,756.319153 833.772644,756.319153 823.276001,756.319153 
	C823.276001,760.362793 823.276001,764.072083 823.276001,768.183105 
	C828.434937,768.183105 833.201355,768.183105 838.080444,768.183105 
	C838.080444,779.255676 838.080444,789.911926 838.080444,801.118896 
	C832.683167,801.118896 827.614014,801.118896 822.603821,801.118896 
	C822.603821,805.383484 822.603821,809.084351 822.603821,813.001648 
	C835.831970,813.001648 848.642822,813.001648 862.435791,813.001648 
M614.845398,233.721176 
	C611.348511,231.546021 607.993042,229.070496 604.292542,227.327576 
	C602.549255,226.506500 599.713196,226.299774 598.108032,227.170685 
	C588.409668,232.432938 578.924072,238.087509 569.021667,243.810638 
	C577.330078,255.885666 585.296997,267.464447 593.678406,279.645660 
	C600.894287,264.158661 607.815125,249.304886 614.845398,233.721176 
M727.620483,574.076416 
	C742.069092,565.655151 756.517761,557.233887 771.210083,548.670593 
	C764.136108,538.341553 757.262451,528.305115 749.926819,517.594055 
	C738.419128,538.745422 727.403137,558.993103 716.387146,579.240723 
	C716.688904,579.507263 716.990662,579.773804 717.292419,580.040283 
	C720.523865,578.176208 723.755371,576.312195 727.620483,574.076416 
M991.979492,739.503052 
	C991.979492,737.427856 991.979492,735.352722 991.979492,733.261719 
	C986.484985,733.261719 981.575928,733.261719 976.274475,733.261719 
	C976.950195,743.210449 977.606079,752.866638 978.277283,762.748413 
	C982.442932,762.748413 986.192078,762.748413 990.392029,762.748413 
	C990.882874,755.275452 991.369507,747.865479 991.979492,739.503052 
M854.083313,740.204346 
	C854.388306,739.264404 854.840332,738.344849 854.973694,737.381165 
	C855.689758,732.204285 853.800293,728.643127 849.498535,726.877930 
	C844.790833,724.946228 839.704773,726.116638 836.981812,729.923401 
	C834.240417,733.755737 834.348022,737.684509 837.223633,741.392883 
	C840.064209,745.056030 845.366333,746.149841 849.851624,743.942200 
	C851.286072,743.236084 852.424866,741.929382 854.083313,740.204346 
M365.085602,730.801819 
	C364.204346,729.824158 363.453003,728.672241 362.418182,727.900452 
	C358.868561,725.252625 353.271637,725.297058 349.867310,728.022766 
	C346.414642,730.787109 345.091705,734.409790 346.685364,738.627319 
	C348.412872,743.199097 351.999908,745.261597 356.833252,744.978821 
	C363.948853,744.562561 367.139526,739.513733 365.085602,730.801819 
M220.567245,744.435669 
	C225.368378,742.897766 227.414291,739.509949 227.092102,734.596863 
	C226.806610,730.243408 224.344666,727.620300 220.265594,726.470825 
	C215.660690,725.173157 211.167938,725.985779 209.012039,730.268188 
	C207.653229,732.967224 207.351898,737.168579 208.470901,739.927612 
	C210.352188,744.566223 214.904419,745.721924 220.567245,744.435669 
z"/>
<path fill="#01ADB5" opacity="1.000000" stroke="none" 
	d="
M566.389771,537.989563 
	C565.460510,536.854614 564.531311,535.719666 563.104919,533.977356 
	C550.235413,557.553162 537.792297,580.347900 525.080688,603.634338 
	C504.751617,591.810730 484.843964,580.232239 464.662140,568.494263 
	C479.967072,535.806458 495.153320,503.372009 510.644928,470.285431 
	C528.174255,491.639069 545.330994,512.538879 562.708923,533.708130 
	C563.894226,532.086304 564.922668,530.679260 566.077942,529.098511 
	C567.394287,530.490051 568.479248,531.636963 569.969360,533.212097 
	C598.100159,481.575165 626.046814,430.276276 654.348511,378.325714 
	C685.148804,423.212219 715.576172,467.555298 746.200439,512.185303 
	C747.431885,510.163452 748.358032,508.642822 749.382507,506.960846 
	C750.567322,508.456482 751.624084,509.790405 753.122559,511.681854 
	C762.660950,494.250671 771.924622,477.321716 781.188232,460.392792 
	C781.498291,460.455109 781.808350,460.517426 782.118408,460.579742 
	C782.118408,461.634521 782.118408,462.689301 782.118408,463.744080 
	C782.118469,488.571625 782.136780,513.399231 782.074585,538.226562 
	C782.070740,539.769226 781.950256,541.915894 780.991028,542.732361 
	C778.631409,544.740784 776.338623,546.570496 773.558960,542.140869 
	C767.294495,532.157837 760.287537,522.640808 753.335205,512.575928 
	C752.170654,514.040710 751.195801,515.266907 749.929382,516.859924 
	C748.788757,515.614502 747.738647,514.467896 746.169556,512.754578 
	C742.043518,520.261047 738.018555,527.553406 734.021851,534.861267 
	C725.093262,551.186829 716.221680,567.544006 707.197937,583.816833 
	C706.204285,585.608643 704.633423,587.377502 702.888184,588.409973 
	C683.305420,599.995300 663.636047,611.434021 643.536194,623.177185 
	C619.110779,593.422424 594.702515,563.688477 569.989624,533.583496 
	C568.959900,535.283752 568.218750,536.507507 567.043213,537.854126 
	C566.608765,537.977051 566.389771,537.989563 566.389771,537.989563 
z"/>
<path fill="#01ADB5" opacity="1.000000" stroke="none" 
	d="
M649.964783,373.888763 
	C637.729309,396.533569 625.525146,419.195312 613.250366,441.818756 
	C598.112793,469.718750 582.917053,497.587219 567.742859,525.467346 
	C567.284241,526.309998 566.785583,527.130859 565.945740,528.584961 
	C548.360291,507.173431 531.104492,486.163269 513.588989,464.836914 
	C512.565491,466.576569 511.687988,468.067963 510.567566,469.972321 
	C509.376190,468.689087 508.247681,467.473602 506.536499,465.630554 
	C490.874481,499.037079 475.414948,532.011597 459.705475,565.519348 
	C450.064087,559.916626 441.099823,553.858948 431.420776,549.328430 
	C422.274445,545.047180 419.452942,539.346436 419.576294,529.082275 
	C420.227264,474.924652 419.881470,420.755035 419.881470,366.589600 
	C419.881470,364.762573 419.881470,362.935547 419.881470,359.662354 
	C449.214691,395.415680 477.769287,430.219971 506.494843,465.232666 
	C507.560242,463.300995 508.435730,461.713654 509.405121,459.956055 
	C510.634918,461.307709 511.733978,462.515656 513.390198,464.335968 
	C540.461609,406.596375 567.336548,349.275970 594.576782,291.176422 
	C613.268066,318.412415 631.504761,344.985901 649.855591,372.170349 
	C649.968079,373.150452 649.966431,373.519592 649.964783,373.888763 
z"/>
<path fill="#00ADB5" opacity="1.000000" stroke="none" 
	d="
M596.938538,285.769409 
	C596.276184,287.283997 595.613770,288.798553 594.747681,290.779144 
	C593.449768,289.247620 592.360657,287.962372 590.690308,285.991333 
	C563.535889,343.913330 536.596924,401.375610 509.370148,459.451874 
	C501.343475,449.697998 493.547089,440.236511 485.764252,430.763885 
	C465.597107,406.217804 445.807434,381.346405 425.065582,357.296143 
	C418.047455,349.158600 420.502533,340.573120 420.110657,331.930054 
	C420.068573,331.001831 421.922241,329.743774 423.129852,329.037994 
	C469.897644,301.706482 516.692688,274.421509 564.088135,246.778122 
	C572.767578,259.386810 581.487793,272.054688 590.557922,285.230804 
	C591.592773,283.556000 592.478149,282.123169 593.694641,280.154510 
	C594.710144,281.483307 595.627319,282.683380 596.767273,284.369019 
	C596.983276,285.160126 596.966125,285.465057 596.938538,285.769409 
z"/>
<path fill="#00ADB5" opacity="1.000000" stroke="none" 
	d="
M650.303772,373.837433 
	C649.966431,373.519592 649.968079,373.150452 649.953003,372.504791 
	C651.256470,371.096710 652.576599,369.965118 654.221008,368.555542 
	C654.962585,369.349335 656.116028,370.583954 657.632568,372.207336 
	C673.348816,343.390961 688.953613,314.778748 704.764893,285.788116 
	C716.096313,292.415833 727.105713,298.858154 738.117981,305.295532 
	C751.737244,313.256866 765.411133,321.127716 778.908875,329.289948 
	C780.475647,330.237396 781.975403,332.785645 781.984314,334.599243 
	C782.162781,370.900940 782.129089,407.203766 782.079224,443.506256 
	C782.077026,445.111908 781.896057,446.922699 781.156494,448.290985 
	C770.735413,467.571259 760.202881,486.791290 749.358887,506.645752 
	C718.661438,461.905945 688.232239,417.557129 657.626709,372.951355 
	C656.723145,374.358032 656.017029,375.457245 654.825073,376.788147 
	C654.339172,377.019806 653.872986,377.047668 653.872986,377.047668 
	C652.796265,375.960480 651.719482,374.873291 650.303772,373.837433 
z"/>
<path fill="#01ADB5" opacity="1.000000" stroke="none" 
	d="
M597.295044,285.828125 
	C596.966125,285.465057 596.983276,285.160126 596.993774,284.625519 
	C602.316528,273.551819 607.654358,262.716370 612.945984,251.858429 
	C615.341370,246.943268 617.644897,241.983353 620.242920,236.511230 
	C630.851318,242.630814 641.166687,248.530670 651.432556,254.515381 
	C666.215881,263.133636 680.895874,271.932037 695.775208,280.380188 
	C699.300171,282.381561 699.362915,283.803131 697.478088,287.214966 
	C683.579590,312.373779 669.953735,337.683197 656.227478,362.937256 
	C655.527588,364.225006 654.694214,365.440247 653.644897,367.139648 
	C643.504578,352.332397 633.691284,337.936523 623.807251,323.589325 
	C615.129822,310.993500 606.373169,298.452240 597.295044,285.828125 
z"/>
<path fill="#01ADB5" opacity="1.000000" stroke="none" 
	d="
M566.421509,538.379883 
	C566.389771,537.989563 566.608765,537.977051 566.717712,537.965210 
	C573.632568,546.503357 580.351868,555.124084 587.261841,563.589172 
	C603.771545,583.814392 620.372253,603.965393 636.927185,624.153748 
	C637.329102,624.643921 637.624390,625.221558 638.274475,626.233032 
	C626.966797,632.843445 615.951172,639.577393 604.588928,645.664185 
	C602.449158,646.810364 598.405090,646.293396 596.125000,644.992554 
	C574.339844,632.562378 552.744751,619.799133 531.102234,607.119324 
	C530.831116,606.960388 530.653870,606.641113 530.240845,606.184509 
	C538.609314,590.821594 547.059937,575.401855 555.413574,559.929871 
	C559.192749,552.930237 562.779297,545.826660 566.421509,538.379883 
z"/>
<path fill="#02ADB5" opacity="1.000000" stroke="none" 
	d="
M663.609863,784.692810 
	C666.416626,801.121033 660.217102,810.297974 643.893799,811.932007 
	C632.568481,813.065674 621.037964,812.150146 609.295105,812.150146 
	C609.295105,788.089355 609.295105,763.541504 609.295105,737.817017 
	C621.758240,738.563538 634.073059,738.617188 646.177551,740.239929 
	C656.067810,741.565796 660.924072,748.005127 661.199829,756.708130 
	C661.397949,762.957214 658.854248,767.634460 653.587952,770.882874 
	C652.212585,771.731201 650.768188,772.467590 649.088440,773.404358 
	C655.301514,775.655579 661.149353,777.702820 663.609863,784.692810 
M645.531860,785.531982 
	C640.983887,778.162964 633.843933,780.341858 627.172729,780.054321 
	C627.172729,787.114319 627.172729,793.658569 627.172729,800.142822 
	C641.974365,802.193176 647.243164,798.187622 645.531860,785.531982 
M640.482483,752.810242 
	C636.088928,752.019409 631.695312,751.228577 627.193726,750.418274 
	C627.193726,757.049622 627.193726,762.412292 627.193726,767.990906 
	C632.901184,767.695740 639.004639,769.605896 642.464355,763.834473 
	C644.484436,760.464783 644.206543,756.477295 640.482483,752.810242 
z"/>
<path fill="#02AEB6" opacity="1.000000" stroke="none" 
	d="
M314.790833,823.575439 
	C312.277893,830.137146 307.121429,833.248230 301.258148,834.921326 
	C290.492065,837.993408 279.525543,838.004944 268.739410,834.950562 
	C260.787750,832.698914 257.606171,827.868774 257.710632,819.001221 
	C261.826447,819.001221 265.960297,818.934509 270.088348,819.058899 
	C270.888336,819.082947 271.958893,819.652039 272.407867,820.309082 
	C276.344879,826.071228 291.086151,828.406311 296.327759,823.749390 
	C297.585541,822.631958 298.832733,819.782715 298.257751,818.701294 
	C297.242615,816.791992 294.996704,814.749451 292.953644,814.346375 
	C289.259064,813.617615 285.328339,814.170898 281.508087,813.966858 
	C278.531830,813.807922 275.465729,813.695007 272.627258,812.895325 
	C263.528961,810.332214 261.046509,802.112915 266.923615,794.631592 
	C267.621246,793.743469 268.396606,792.916321 269.363525,791.797607 
	C264.232483,788.160034 260.308563,783.885132 259.980896,777.296448 
	C259.326508,764.137573 268.051636,754.635681 282.479645,754.179626 
	C292.952972,753.848572 302.902710,752.352600 312.451569,746.645752 
	C313.775299,750.960876 314.962830,754.832031 316.408905,759.546021 
	C311.401367,760.278809 306.913361,760.935547 302.017059,761.652039 
	C302.399200,762.164612 302.637939,762.699341 303.047791,763.003540 
	C314.598724,771.574280 313.297180,787.173157 299.987488,792.862671 
	C294.718445,795.115051 288.395935,794.853516 282.589020,795.930359 
	C281.068481,796.212280 279.682434,797.219421 278.234619,797.893494 
	C279.567474,799.039551 280.792480,800.977905 282.254303,801.176880 
	C286.018311,801.689331 289.985474,800.909180 293.690582,801.606567 
	C298.977081,802.601624 304.638000,803.532227 309.166138,806.164062 
	C315.386597,809.779724 316.903198,816.195374 314.790833,823.575439 
M293.627258,769.136108 
	C289.901917,764.773865 285.586182,763.742432 281.430725,766.221313 
	C277.315796,768.675903 275.852112,774.841614 278.216766,780.034424 
	C279.852631,783.626831 282.765656,785.274536 286.640015,784.933472 
	C290.474792,784.595947 293.449554,782.691772 294.028473,778.722229 
	C294.448730,775.840637 293.975250,772.828674 293.627258,769.136108 
z"/>
<path fill="#01ADB5" opacity="1.000000" stroke="none" 
	d="
M164.213196,744.686768 
	C170.355927,748.761230 174.426956,754.206360 175.131317,761.031006 
	C176.025574,769.695557 176.860809,778.666138 175.592194,787.187866 
	C173.364075,802.154907 164.348679,810.441528 148.812363,812.305664 
	C139.673111,813.402161 130.294754,812.505798 120.754089,812.505798 
	C120.754089,788.161926 120.754089,763.755493 120.754089,738.660889 
	C135.464035,738.644348 150.278976,736.577942 164.213196,744.686768 
M143.103348,800.587402 
	C150.870544,799.888428 156.259567,795.698486 157.156662,788.111023 
	C158.118668,779.974487 158.481125,771.500793 157.286957,763.443665 
	C155.826126,753.587280 148.644012,749.740234 138.112152,751.645386 
	C138.112152,767.009949 138.039902,782.459229 138.290787,797.903320 
	C138.305923,798.834778 140.895996,799.724365 143.103348,800.587402 
z"/>
<path fill="#03AEB6" opacity="1.000000" stroke="none" 
	d="
M761.063599,778.911621 
	C768.178650,777.973083 774.899719,777.102417 781.731445,776.217346 
	C782.512207,770.433289 780.496887,767.196045 774.312073,767.002197 
	C768.099854,766.807373 761.849243,767.837036 754.977295,768.380493 
	C754.007874,765.628479 752.813354,762.237427 751.457458,758.388184 
	C763.440308,754.349182 775.156128,751.877258 787.259094,756.146790 
	C795.383362,759.012817 798.531189,765.531921 798.778320,773.638550 
	C798.981262,780.295288 798.744385,786.964417 798.852844,793.625610 
	C798.907898,797.005859 799.261292,800.027344 801.174927,803.396362 
	C802.622498,805.944702 800.157654,810.715393 799.148865,815.986816 
	C793.623718,813.308167 789.066223,811.098633 783.955261,808.620789 
	C775.811035,814.926514 766.005127,817.896851 755.296143,812.206848 
	C748.534485,808.614075 746.297546,802.270203 746.903259,794.874695 
	C747.609253,786.254272 753.088013,781.686707 761.063599,778.911621 
M778.793762,800.317993 
	C783.950012,796.891785 781.960449,791.956909 781.910095,787.152527 
	C779.234497,787.152527 776.899536,786.894958 774.644287,787.209412 
	C770.697937,787.759705 766.154419,788.203674 765.109070,792.921631 
	C764.580200,795.308472 765.082886,798.927063 766.628418,800.563354 
	C769.942627,804.072510 774.244507,802.619751 778.793762,800.317993 
z"/>
<path fill="#03AEB6" opacity="1.000000" stroke="none" 
	d="
M493.085175,814.283447 
	C487.132904,815.629456 481.705383,815.397949 476.695007,812.543396 
	C469.670166,808.541199 467.202118,802.191406 467.929352,794.392761 
	C468.597382,787.229004 473.848328,781.207092 481.663788,779.038574 
	C485.166870,778.066528 488.812073,777.447693 492.433990,777.108826 
	C495.874512,776.786926 499.368744,777.039490 502.794739,777.039490 
	C503.345032,770.151794 501.410095,767.154541 495.142853,766.981506 
	C488.938599,766.810242 482.700470,767.865662 475.936218,768.427979 
	C474.951141,765.519043 473.801392,762.123718 472.507385,758.302429 
	C484.238708,754.496826 495.628021,751.983154 507.462738,755.877197 
	C515.446838,758.504333 519.639465,764.634460 519.795776,773.790588 
	C519.917969,780.949707 519.602600,788.122742 519.936951,795.268311 
	C520.057739,797.850952 521.529968,800.363098 522.327942,802.925293 
	C522.602966,803.808350 523.042847,804.838684 522.823059,805.641846 
	C522.001221,808.644470 520.937195,811.580933 519.560913,815.768738 
	C514.519043,813.286926 509.957550,811.041565 505.558014,808.875977 
	C501.861816,810.497498 497.678558,812.332764 493.085175,814.283447 
M486.253448,799.161865 
	C489.899048,803.061340 493.257538,803.614624 498.251007,801.138550 
	C503.184692,798.692078 503.990906,796.234680 502.610046,786.757080 
	C499.096344,787.135498 495.443970,787.149719 491.991028,787.986694 
	C486.365051,789.350403 484.807556,792.416016 486.253448,799.161865 
z"/>
<path fill="#01ADB5" opacity="1.000000" stroke="none" 
	d="
M940.119995,805.928833 
	C940.120056,808.395508 940.120056,810.371094 940.120056,812.672974 
	C934.409302,812.672974 929.010254,812.672974 922.998352,812.672974 
	C922.998352,805.563538 922.999268,798.462219 922.998047,791.360840 
	C922.997009,785.364563 923.153381,779.362854 922.948120,773.373535 
	C922.724365,766.847168 918.297852,764.613159 912.787720,768.124573 
	C909.403259,770.281372 907.418030,773.033875 907.560730,777.512329 
	C907.882019,787.589294 907.669617,797.683167 907.674194,807.770203 
	C907.674927,809.387512 907.674316,811.004761 907.674316,812.809692 
	C901.820984,812.809692 896.534119,812.809692 890.865845,812.809692 
	C890.865845,794.024597 890.865845,775.313171 890.865845,756.006836 
	C895.005554,756.006836 899.170959,755.600708 903.179993,756.215027 
	C904.696045,756.447327 905.851074,759.035889 907.545654,760.980774 
	C908.116089,760.572876 909.156128,759.530579 910.411926,758.986267 
	C914.459534,757.231995 918.470398,754.736511 922.706299,754.203918 
	C932.893799,752.923218 939.714844,759.126038 939.966370,769.464294 
	C940.257935,781.449585 940.088989,793.446045 940.119995,805.928833 
z"/>
<path fill="#02AEB6" opacity="1.000000" stroke="none" 
	d="
M1072.349365,770.480103 
	C1065.873535,769.398926 1059.714478,767.782349 1053.451294,766.964966 
	C1051.832153,766.753662 1049.885986,769.049072 1048.090088,770.192993 
	C1049.561523,771.888062 1050.710205,774.342529 1052.566772,775.131836 
	C1057.587036,777.265930 1062.943848,778.592468 1068.101685,780.423645 
	C1074.952881,782.856140 1079.460327,787.418701 1079.745361,795.007568 
	C1080.022095,802.373108 1076.425537,807.628540 1070.066528,811.184204 
	C1058.034546,817.912109 1038.326050,815.777771 1027.446533,806.152832 
	C1030.071899,803.070679 1032.708130,799.975891 1034.171997,798.257324 
	C1041.889038,799.764771 1048.380859,801.510803 1054.971191,802.050232 
	C1057.154419,802.228943 1060.805786,799.786499 1061.643555,797.687439 
	C1063.088257,794.067200 1059.295532,792.650635 1056.547119,791.632812 
	C1051.729248,789.848755 1046.666138,788.705322 1041.901611,786.803040 
	C1033.755859,783.550720 1030.684814,778.847046 1030.878906,770.916687 
	C1031.042725,764.218140 1035.522583,758.620667 1042.843872,755.966553 
	C1054.498535,751.741455 1070.282104,754.170166 1078.324219,761.595398 
	C1076.444214,764.448914 1074.535767,767.345642 1072.349365,770.480103 
z"/>
<path fill="#02AEB6" opacity="1.000000" stroke="none" 
	d="
M554.181580,780.997803 
	C554.181641,768.865051 554.181641,757.231812 554.181641,745.107178 
	C548.549500,745.107178 543.295288,745.107178 537.772095,745.107178 
	C537.772095,740.863770 537.772095,737.116272 537.772095,733.182373 
	C549.017395,733.182373 559.971191,733.182373 571.519714,733.182373 
	C571.519714,735.128540 571.519653,736.919312 571.519653,738.710083 
	C571.519653,756.874451 571.503662,775.038879 571.527710,793.203247 
	C571.537170,800.366455 574.306641,803.369385 580.798523,801.673889 
	C586.235779,800.253967 588.461304,801.731323 589.298523,806.862122 
	C589.530518,808.283691 590.264099,809.623413 590.917603,811.411438 
	C582.126892,815.037842 573.572754,816.799744 564.656494,813.036926 
	C558.891174,810.603882 555.894775,805.755554 555.120911,799.916870 
	C554.315735,793.842224 554.455139,787.642395 554.181580,780.997803 
z"/>
<path fill="#02ADB5" opacity="1.000000" stroke="none" 
	d="
M706.292114,765.440308 
	C712.779968,754.397827 723.637268,750.872192 733.545288,756.444580 
	C733.297852,759.010254 733.128296,761.651611 732.772644,764.267700 
	C732.082458,769.345642 731.287781,774.409424 730.499695,779.726807 
	C727.112976,779.726807 723.854309,779.726807 720.138733,779.726807 
	C719.980164,776.523254 719.820435,773.295898 719.660828,770.070984 
	C709.650635,770.794434 704.788208,782.072937 706.050232,801.689087 
	C709.407715,801.689087 712.814819,801.689087 716.612793,801.689087 
	C716.612793,805.546814 716.612793,808.933472 716.612793,812.665771 
	C705.020752,812.665771 693.307190,812.665771 681.294006,812.665771 
	C681.294006,809.254639 681.294006,805.869629 681.294006,802.059998 
	C683.544495,802.059998 685.638367,802.059998 688.102295,802.059998 
	C688.102295,790.288452 688.102295,778.931091 688.102295,767.275513 
	C685.915771,767.123291 683.806580,766.976501 681.348938,766.805420 
	C681.348938,763.394531 681.348938,760.005005 681.348938,756.302063 
	C687.911499,756.302063 694.492859,756.302063 701.575134,756.302063 
	C702.361145,759.283630 703.150085,762.451416 704.106079,765.567810 
	C704.182007,765.815125 705.416077,765.707153 706.292114,765.440308 
z"/>
<path fill="#03AEB6" opacity="1.000000" stroke="none" 
	d="
M412.179138,778.027100 
	C412.179199,774.564453 412.179199,771.596497 412.179199,768.045410 
	C408.108276,768.045410 404.381256,768.045410 400.429169,768.045410 
	C400.429169,763.874573 400.429169,760.286133 400.429169,756.100281 
	C404.233521,756.100281 407.963043,756.100281 411.147491,756.100281 
	C411.770569,755.386169 411.956635,755.273499 411.968475,755.144714 
	C412.312439,751.412415 411.458496,745.267456 413.198669,744.415466 
	C417.680145,742.221436 423.308746,742.370422 428.949890,741.511475 
	C428.949890,746.598877 428.949890,750.873169 428.949890,755.825500 
	C435.322906,755.825500 441.368683,755.825500 447.754395,755.825500 
	C447.092346,760.268127 446.538086,763.987061 445.939056,768.006653 
	C440.343231,768.006653 435.060211,768.006653 429.502960,768.006653 
	C429.502960,777.599365 429.313324,786.848328 429.593018,796.083069 
	C429.710724,799.969116 432.526367,802.098816 436.373993,801.883484 
	C439.966125,801.682373 443.523529,800.860474 447.753937,800.210754 
	C449.282410,803.027527 451.066681,806.315674 452.828064,809.561707 
	C444.653778,815.959656 428.922577,816.992126 420.558868,811.681396 
	C414.310638,807.714050 412.424286,801.424866 412.212708,794.497009 
	C412.050232,789.176575 412.179565,783.847229 412.179138,778.027100 
z"/>
<path fill="#01ADB5" opacity="1.000000" stroke="none" 
	d="
M227.513474,776.000488 
	C227.513184,784.466370 227.513184,792.432434 227.513184,800.935242 
	C232.473618,800.935242 237.048401,800.935242 241.864334,800.935242 
	C241.864334,805.070129 241.864334,808.672058 241.864334,812.638916 
	C226.192596,812.638916 210.492798,812.638916 194.487793,812.638916 
	C194.487793,808.993042 194.487793,805.403381 194.487793,801.226440 
	C199.477051,801.226440 204.525833,801.226440 209.998383,801.226440 
	C209.998383,790.001160 209.998383,779.349670 209.998383,768.123047 
	C205.209122,768.123047 200.309341,768.123047 195.152390,768.123047 
	C195.152390,763.961792 195.152390,760.360229 195.152390,756.375732 
	C205.630157,756.375732 216.192917,756.375732 227.513763,756.375732 
	C227.513763,762.663025 227.513763,769.081848 227.513474,776.000488 
z"/>
<path fill="#01ADB5" opacity="1.000000" stroke="none" 
	d="
M344.907593,800.997986 
	C347.383545,801.031006 349.413361,801.390564 349.382568,798.220642 
	C349.286591,788.335632 349.347382,778.449097 349.347382,768.151245 
	C344.160156,768.151245 339.393433,768.151245 334.256775,768.151245 
	C334.256775,764.034912 334.256775,760.323792 334.256775,756.301941 
	C344.809784,756.301941 355.376740,756.301941 366.371552,756.301941 
	C366.371552,770.976807 366.371552,785.580811 366.371552,800.744873 
	C371.325043,800.744873 375.875153,800.744873 380.769379,800.744873 
	C380.769379,805.011658 380.769379,808.722656 380.769379,812.720886 
	C365.120148,812.720886 349.535431,812.720886 333.567200,812.720886 
	C333.567200,809.044922 333.567200,805.333435 333.567200,800.998230 
	C337.209839,800.998230 340.816528,800.998230 344.907593,800.997986 
z"/>
<path fill="#01ADB5" opacity="1.000000" stroke="none" 
	d="
M861.944702,813.001648 
	C848.642822,813.001648 835.831970,813.001648 822.603821,813.001648 
	C822.603821,809.084351 822.603821,805.383484 822.603821,801.118896 
	C827.614014,801.118896 832.683167,801.118896 838.080444,801.118896 
	C838.080444,789.911926 838.080444,779.255676 838.080444,768.183105 
	C833.201355,768.183105 828.434937,768.183105 823.276001,768.183105 
	C823.276001,764.072083 823.276001,760.362793 823.276001,756.319153 
	C833.772644,756.319153 844.343994,756.319153 855.492737,756.319153 
	C855.492737,771.050232 855.492737,785.778442 855.492737,800.882263 
	C860.496094,800.882263 864.939636,800.882263 869.747498,800.882263 
	C869.747498,804.971680 869.747498,808.682861 869.747498,813.001648 
	C867.315796,813.001648 864.875793,813.001648 861.944702,813.001648 
z"/>
<path fill="#02ADB5" opacity="1.000000" stroke="none" 
	d="
M614.790649,234.086151 
	C607.815125,249.304886 600.894287,264.158661 593.678406,279.645660 
	C585.296997,267.464447 577.330078,255.885666 569.021667,243.810638 
	C578.924072,238.087509 588.409668,232.432938 598.108032,227.170685 
	C599.713196,226.299774 602.549255,226.506500 604.292542,227.327576 
	C607.993042,229.070496 611.348511,231.546021 614.790649,234.086151 
z"/>
<path fill="#02AEB6" opacity="1.000000" stroke="none" 
	d="
M727.303650,574.262268 
	C723.755371,576.312195 720.523865,578.176208 717.292419,580.040283 
	C716.990662,579.773804 716.688904,579.507263 716.387146,579.240723 
	C727.403137,558.993103 738.419128,538.745422 749.926819,517.594055 
	C757.262451,528.305115 764.136108,538.341553 771.210083,548.670593 
	C756.517761,557.233887 742.069092,565.655151 727.303650,574.262268 
z"/>
<path fill="#02AEB6" opacity="1.000000" stroke="none" 
	d="
M991.917847,739.979248 
	C991.369507,747.865479 990.882874,755.275452 990.392029,762.748413 
	C986.192078,762.748413 982.442932,762.748413 978.277283,762.748413 
	C977.606079,752.866638 976.950195,743.210449 976.274475,733.261719 
	C981.575928,733.261719 986.484985,733.261719 991.979492,733.261719 
	C991.979492,735.352722 991.979492,737.427856 991.917847,739.979248 
z"/>
<path fill="#03AEB6" opacity="1.000000" stroke="none" 
	d="
M853.891113,740.550903 
	C852.424866,741.929382 851.286072,743.236084 849.851624,743.942200 
	C845.366333,746.149841 840.064209,745.056030 837.223633,741.392883 
	C834.348022,737.684509 834.240417,733.755737 836.981812,729.923401 
	C839.704773,726.116638 844.790833,724.946228 849.498535,726.877930 
	C853.800293,728.643127 855.689758,732.204285 854.973694,737.381165 
	C854.840332,738.344849 854.388306,739.264404 853.891113,740.550903 
z"/>
<path fill="#03AEB6" opacity="1.000000" stroke="none" 
	d="
M365.261047,731.163574 
	C367.139526,739.513733 363.948853,744.562561 356.833252,744.978821 
	C351.999908,745.261597 348.412872,743.199097 346.685364,738.627319 
	C345.091705,734.409790 346.414642,730.787109 349.867310,728.022766 
	C353.271637,725.297058 358.868561,725.252625 362.418182,727.900452 
	C363.453003,728.672241 364.204346,729.824158 365.261047,731.163574 
z"/>
<path fill="#03AEB6" opacity="1.000000" stroke="none" 
	d="
M220.185577,744.572693 
	C214.904419,745.721924 210.352188,744.566223 208.470901,739.927612 
	C207.351898,737.168579 207.653229,732.967224 209.012039,730.268188 
	C211.167938,725.985779 215.660690,725.173157 220.265594,726.470825 
	C224.344666,727.620300 226.806610,730.243408 227.092102,734.596863 
	C227.414291,739.509949 225.368378,742.897766 220.185577,744.572693 
z"/>
<path fill="#01ADB5" opacity="1.000000" stroke="none" 
	d="
M653.979065,377.239563 
	C653.872986,377.047668 654.339172,377.019806 654.572388,377.009888 
	C654.565430,377.143829 654.325256,377.287628 653.979065,377.239563 
z"/>
<path fill="#E8ECED" opacity="1.000000" stroke="none" 
	d="
M645.671997,785.919250 
	C647.243164,798.187622 641.974365,802.193176 627.172729,800.142822 
	C627.172729,793.658569 627.172729,787.114319 627.172729,780.054321 
	C633.843933,780.341858 640.983887,778.162964 645.671997,785.919250 
z"/>
<path fill="#E8ECED" opacity="1.000000" stroke="none" 
	d="
M640.776367,753.068848 
	C644.206543,756.477295 644.484436,760.464783 642.464355,763.834473 
	C639.004639,769.605896 632.901184,767.695740 627.193726,767.990906 
	C627.193726,762.412292 627.193726,757.049622 627.193726,750.418274 
	C631.695312,751.228577 636.088928,752.019409 640.776367,753.068848 
z"/>
<path fill="#E8ECED" opacity="1.000000" stroke="none" 
	d="
M293.763733,769.505493 
	C293.975250,772.828674 294.448730,775.840637 294.028473,778.722229 
	C293.449554,782.691772 290.474792,784.595947 286.640015,784.933472 
	C282.765656,785.274536 279.852631,783.626831 278.216766,780.034424 
	C275.852112,774.841614 277.315796,768.675903 281.430725,766.221313 
	C285.586182,763.742432 289.901917,764.773865 293.763733,769.505493 
z"/>
<path fill="#E8ECED" opacity="1.000000" stroke="none" 
	d="
M142.695648,800.610474 
	C140.895996,799.724365 138.305923,798.834778 138.290787,797.903320 
	C138.039902,782.459229 138.112152,767.009949 138.112152,751.645386 
	C148.644012,749.740234 155.826126,753.587280 157.286957,763.443665 
	C158.481125,771.500793 158.118668,779.974487 157.156662,788.111023 
	C156.259567,795.698486 150.870544,799.888428 142.695648,800.610474 
z"/>
<path fill="#E8ECED" opacity="1.000000" stroke="none" 
	d="
M778.470215,800.535767 
	C774.244507,802.619751 769.942627,804.072510 766.628418,800.563354 
	C765.082886,798.927063 764.580200,795.308472 765.109070,792.921631 
	C766.154419,788.203674 770.697937,787.759705 774.644287,787.209412 
	C776.899536,786.894958 779.234497,787.152527 781.910095,787.152527 
	C781.960449,791.956909 783.950012,796.891785 778.470215,800.535767 
z"/>
<path fill="#E8ECED" opacity="1.000000" stroke="none" 
	d="
M486.112183,798.813965 
	C484.807556,792.416016 486.365051,789.350403 491.991028,787.986694 
	C495.443970,787.149719 499.096344,787.135498 502.610046,786.757080 
	C503.990906,796.234680 503.184692,798.692078 498.251007,801.138550 
	C493.257538,803.614624 489.899048,803.061340 486.112183,798.813965 
z"/>
</svg>